<svg xmlns="http://www.w3.org/2000/svg" viewBox="0 0 627.38 342.8"><title>hero-backg</title><g style="isolation:isolate"><path d="M627.38,223.9H572.1c.07.38.16.83.24,1.38,1.52,10.65-13.32,17-21.82,18.05a96.16,96.16,0,0,1-20.42.61c-1.43-.15-6.54-2-7.91-.89-1,.79-.34,2.94-1.57,4-2.48,2.12-6.35,0-8.9-.62-3.6-.92-12.55.77-14.66-2.2L476.89,226.5c3.42-2.06-3-9.84,3.32-8.61.36-1.86-.95-3.18-.18-4.76,1.38-2.82,2.19,0,4.46-.43.07-1.33.89-3.47.9-4.3,0-2.65-1-1.89-2.39-3.06-1.74-1.49-2.48-1.37-2.06-3.85s2.22-1.78,2.72-3.68c2.81-.55,5.48,3,5.77-1.33.1-1.42-1.55-2.34-.7-3.69,1-1.67,2.83-.31,3.68.66,5.79-1.47-2.47-5.21,2.45-8,2.15-1.23,6.7,2.76,7.75.45,1.38-.2,2-1.28,3.32-1.59s3.2,1.88,3.1-.87c2.27.16,4.19,2.19,5.47-1.25a15.78,15.78,0,0,0,.22-3.45c-.12-1-1.21-2.48-1.17-3.29.14-2.5,3.33-3,5.28-2.68,1,.17,2.26,1.31,3.31,1.09,1.21-.25,1.56-2.35,2.73-2.77,2.76-1,4.83,2.21,6.11,3.77,2.27,2.76,2.31,2.21,5.22,1,8.15-3.47,2.82,5.48,6.32,8.87,1.78,1.73,5.06.91,7.42,1.47l.85.19c.71-1.16,1.18-2.19,2.8-2.42.93-.14,2.28.63,3.25.24.78-.31,1.11-1.21,1.78-1.67.82-.57,2-.6,2.62-1.26s.56-1.73,1-2.39c.76-1.11,1.89-.91,2.58-1.54.87-.79.92-1.72,2-2.51.63-.45,1.39-.08,2.08-.5.48-.31-.08-.93.42-1.16a4.65,4.65,0,0,1,3-.41c2.85,1.08,1.46,4.35,3,5.91.88.93,3,.24,3.67,1.69s-1.14,1.86-.5,3.14c1.15,2.27,5.36,0,6.54-.79.52-.34,1.69-1.68,2.15-1.74,1.45-.15,1.23.94,2.29,1.41.44.21,1.23-.27,1.66,0s.82,1.38,1.12,1.58a4.75,4.75,0,0,0,3.35.65c.52-1.45,1.75-3.57,1.22-5,1.25-.06,2.55,0,3.81-.06,0-1.12-.84-1.42-.66-2.48s1.26-.68,1.42-2c3.76-.55,6.25,1.27,5.7,5,1,.37,3,.61,3.57,1.4.8,1.15-.4,3.1.32,4.12,1.85,2.63,4.5-.55,4.78-2.48,2.69-.83,1.42,1.7,2.7,2.46,1.53.9,2.24-1.17,2.79-1.38,3-1.17,3.68,2.67,6.12,2.31Z" fill="#9dc02e"/><path d="M627.38,223.9H567.69c.37,2.25,1.14,2.73-.61,4.49-3.69,3.76-13.93,4.17-18.64,4.62-3.24.31-6.24,1.21-9.43,1.68-3.51.49-6.46-.3-9.64,1.58-6.4,3.77-10.33,3.51-17.11,0-3.74-1.94-6.75.5-10-.91-4-1.75-6.65-4.87-10.7-.31l-6.11-10.7a2,2,0,0,1,2.09-1.27,6,6,0,0,1-.19-3.25c.22-.81,2.5.19,1.51-2.15,3.38-2.14,8.8,2,11-1.59,1.77-2.94-.17-2-2.16-3-1.35-.7-4.06-2.61-1.55-3.74-.53-1.15-4.5-3.58-1.19-4.84,1.93-.75,4.74,2.31,6.68,2.4.44-1.82-1.73-3.23-1.19-4.53.9-2.23,2.79.22,3.13,1.47,2.24-.28,5.53.09,5.16-2.94-.12-1-2.18-1.14-1.85-3.12.24-1.48,1-2.14,2.69-1.88.42-.94,1.5-3.35,2.27-3.85,2.45-1.6,2.72-.16,4.44.91,1.38.87,2.89,2.73,4.67.47,1.32-1.67-.71-3.41,1.82-3.9,4.31-.83,2.31,6,6.49,1.84,1.56-1.55.72-2.5,3.59-2.15,1.87.23,3.21.72,2.8,3,1.29.21,1.78-1.14,2.47-1.1,1.51.08,1.51.82,3,1.38,2.22.87,5.63.57,5.87-2.33,2.8-.64,2.95.88,5.14,1.49a2.7,2.7,0,0,0,1.57-.07,3.46,3.46,0,0,1,1.18-.25c.95,0,2.15.62,3.07.34a4.59,4.59,0,0,0,2-1.63,3.9,3.9,0,0,0,.77.52c1.46.78,1.91.59,3-.21l.08-.06c.92-.74,1-1.44,2.53-1.25a5,5,0,0,1,1.76-3.22c1.47-.9,1.09.3,2.56.3.14,2.28.83,4,3,2.21,0,1.83,2.38.1,3.38.72,1.69,1,1.37,3.58,4.34,3.19.35-2.49,2.09-5,4.56-5,3.79,0,3.56,3.52,6.74,4.51.07,1.4-.21,2.35.75,3.35,1.1,1.17,2,.45,3.62.76,1.1.24,2.31,1.46,3.54.33,1-.93.56-2.84.62-4.07,1.26-.17,1.29.78,1.93,1.51,1,1.12,2.29,1.64,3.29,2.66s.7,2,2.24,1.07a4.34,4.34,0,0,0,1.62-2.6c.73,0,1.46,0,2.18,0-.16,1.3,1,1.47,2.06,1.26.17-.63-.07-1.84.2-2.37.46-.94,1.19-1,1.89-1.55,1.53-1.28,2.4-2.4,4.53-2.64,2.88-.32,2.23.89,3.8,2.41a2.8,2.8,0,0,0,2.49.67Z" fill="#9dc02e" opacity="0.5" style="mix-blend-mode:multiply"/><path d="M559.74,223.9c.85,3-4,5.62-7.42,6.21-2.52.44-5.13-.76-7.59-.25-1.26.25-1.77,1.11-3,1.46-1.9.52-9.24.81-4.32,4.52-4.89-2.3-8.26-1.29-12.6,1.12-3.44,1.92-4.48.54-8.11,0-1.49,3.55-7.13-6.68-9.23-2.17L495.23,225c-.18-2.36,1.78-3.62,4-2.87,1-2.58,4-.63,5.48-2,1.21-1.08-.37-4.71,3.31-3.61.92,1.71,2.59.56,2.14-1.22-2.56-1.48,1.64-4.5,3.49-4.11,1.29.28,1.17,2.71,2.93,1.62,1.41-.89-.15-2.62.43-3.62s2,.34,2.39-1.27-1.14-1.49-1.83-2.52c-.48-.72-2.43-1.22-1.18-2.32.7-.61,2.65.43,3.23.81,1.8-3.07,4.41-.63,2.14-4.47-.61-1-2.76-1.25-.54-3.08.6-.5,3.06-.43,3.92-.71-.89-3.07,2.84-4.64,4.34-2.1.62,1-1,2.59.2,3.76a2.12,2.12,0,0,0,3.45-.73c.74,1.06,1.89,3.11,3.46,2.26,1.84-1-.25-3,1.19-4s3.06.75,4.24.49c1.44-.32,1.23-2.29,3.6-1.73.07.8.64,1.54.71,2.34,2.45,0,4.58-.77,4.8,2.44-1.56.81-1.26,1.56-.47,2.19h.21c1.12,0,2.54-1.85,3.76-2a5.59,5.59,0,0,1,3.81,1.11c.59.68-.11,1.21.32,1.9.86,1.39,2.07,0,3.18,0,0,1,.57,1.79.41,2.85-.1.65-1.49,1.67-.58,2.55s5-2.26,4.55.76c.77,0,2.56-.34,3.23,0,1.21.65.54,1.16.55,2.43.75,0,4.33-3.33,3.8,0,1.09.14,2.24,0,3.35.09-.14.34,0,1.06-.18,1.45,2.14-.39,1.6,1.94,2.21,3,.46.78,1,.65,1.38,1.13.6.7.69,1.36,1.27,2.12s1.38.83,1.8,1.35a10.55,10.55,0,0,1,1.07,2.86,12.92,12.92,0,0,0,.74,1.82Z" fill="#9dc02e" opacity="0.5" style="mix-blend-mode:multiply"/><path d="M467.18,230.71c0,.65,1.17,1.3.84,2.08-.28.63-2.11,1-2.65,1a30,30,0,0,1-4.13-.15c-2.43,0-4.44.92-6.81,1.19-8.28,1-17,1.62-25.31.77-3.58-.36-7.48-1.67-11.09-1-2.57.45-4.51,2.07-7.23,2.06a14.28,14.28,0,0,1-13-8.73H352.23c-.07-1.58.18-3.47.18-4.63,0-3.25,0-6.46.37-9.69.37-3.63,1.43-7.22,1.6-10.78.17-3.41,0-6.78.33-10.14.52-4.66,1.12-9.32,1.31-14a24.64,24.64,0,0,1,.84-6.51c.39-1.2.06-1.25,1.48-1.31,1.66-.06,3.45.5,5.23.5,2,0,2.45-.16,2.52,1.95,1.55,0,3.57-.41,3.79,1.81a19.19,19.19,0,0,1,2.44-.14c.94,0,2,.74,3,.21s.92-1.48,2.09-1.53c1.69-.08,1.43,1.36,2.16,2.22s1.68,1.05,2.26,2.07c.14.26-.25.75-.06,1s.68.39.72.46c.51,1.09,1.07,1.68,2.34,1.25a3.53,3.53,0,0,0,1.49-2.08c2.3-.12,2.85.2,3.61,2.25.34.93,2.37,3.83.18,4-.2,1.43,2,.86,2.93,1.12,1.08.32.69.88,1.34,1.34s1.39-.2,1.81.81c-.75.79-2.78,3.46-.86,4.14.15,2.13-2.52,4.14,1.32,3.9,0-.88-.18-1.7.53-2.3s1.6.38,2-.95c.63,0,1.29,0,1.92,0-.38.89.22,1.36,1.15,1.15,0,1.21-.35,3.05.51,3.76s1.66-.18,2.15,1c.34.76-.37,1.43.46,2,.53.42,1.55.06,2-.21.87-.51.6-.78.95-1.51.13-.29,0-.95.15-1.34.09-.2.65-.14.83-.44.42-.72.12-1.18.36-2,.32-1,1-1,1.71-.92,0-1.51-.11-3.05,2.38-2,1.12.48,1.25,1.38,2.13-.34.68-1.33.61-2.67,2.48-1.51,1.1.69,1.42,1.93,2.8,2.11s2.55-.85,3.85-.16,1.08,2.63,2.06,3.59c1.71,1.68,3,.08,4.44-.81a3.93,3.93,0,0,1,5,.45c1,1,.21,2.68,1.63,3.33,1.76.81,3-1.58,4.47-2.12a2.83,2.83,0,0,1,3.67,1.92c.73,2.08-.34,3.08,1.9,4.3,2,1.09,3.21,1,5.29,1.18,6.4.63,2.18,5.84,4.63,9.16a6,6,0,0,0,3.55,2.23c1.81.34,3.77.59,4,3.06.18,2-1.26,3.25,0,5.08.68.94,2.23,1.53,2.63,2.65C469,228.28,467.17,229.34,467.18,230.71Z" fill="#9dc02e"/><path d="M460.59,231.73a119.84,119.84,0,0,0-14.27,1.94c-5.76,1.09-11.93-.15-17.78-.14-5.34,0-10.52,1-15.81,1.58-2.9.34-6.46.27-9.18,1.07-1.2-2.37-.63-5.54-.06-8.27H354.81c-.77-2.13-1.58-4.3-2.39-6.46,0-2.63.1-5.25.36-7.86.37-3.63,1.43-7.22,1.6-10.78.17-3.41,0-6.78.33-10.14.52-4.66,1.12-9.32,1.31-14,0-.27,0-.53,0-.8a13.07,13.07,0,0,0,3.07-.44c.93-.24,2-1.22,3.11-.49.73.45.23,1.08.6,1.38s1.13.23,1.55.64c1.3,1.3,1.2,1.86,1.33,3.69,1.11.27,1.58-.71,2.37-.64,2,.19.92.71,1.75,1.93,1.79,2.63,2.09.06,4.63.26,1.64.13,1.36.94,1.92,2,.22.39-.22,1.1,0,1.5s1.35,0,1.68.51c1.29,1.92-1.4,4.69,1.15,5.42,2,.59,3.26-1.39,5,.71.76.91-.21,1.69,1.32,1.92,1.23.16,1.46-1.16,2.34-1.6,2.92-1.45,2.39,1,3.54,2.46,1.39,1.84,3.66.31,5.05,2,1.05,1.26.84,4.75,2.81,5.26,1.29.33,1.64-1.11,2.64-1.34.69-.14,1.9.62,2.84.47,1.74-.3,3.42-1.54,5-2.16.32-1.15.6-2.23,1.77-2.35,1.35-.13,1.63,1.12,2.91.27,1-.67,1.35-2.28,2.25-3.09,2.46-2.19,4.56-.52,5.77,1.79.7,1.31,1.32,2.48,3,2.69s2.58-1.5,4.41-1.7c4.13-.45,1.93,6.25,6.24,5.37,1.44-.29,2.26-1.52,4-1.2a4.34,4.34,0,0,1,3.29,2.81c.48,1.58.2,2.5,1.93,3.38,1.38.69,2.26.42,3.69.48,2.29.07,3.23,1.43,4,3.41s.19,3.26.33,5.27A4.36,4.36,0,0,0,455.5,222c1.41.58,3.22.06,4.26,1.52C461.41,225.77,458.68,229.21,460.59,231.73Z" fill="#9dc02e" opacity="0.5" style="mix-blend-mode:multiply"/><path d="M452.24,230.46c-2,.1-3.9,1-6,1.1-3.07.1-6.16,0-9.24,0-5.71.05-11.43.5-17.16.3-2.28-.07-4.47-.61-6.78-.59a5.69,5.69,0,0,0-2.75.56,5.71,5.71,0,0,1-1.79.83c-1.7.22-2.06-1.64-2.25-3.06,0-.32-.1-1-.12-1.69H354.81c-.77-2.13-1.58-4.3-2.39-6.46,0-2.63.1-5.25.36-7.86.35-3.53,1.36-7,1.57-10.46,3.42-.3,6.79-.58,10.25-.59l1.31-1.31a6.33,6.33,0,0,1,3.72-.88,11.15,11.15,0,0,1,2.13.21c1.19.63.51.48,1.14,1.53.32.53.19,1.18.64,1.79s1-.16,1.55.91.11,3.36.22,4.53c.21,2.31-.19,2,1.75,2,1.74,0,1.83-.72,2.4,1.1.46,1.52-.55,2.63.76,3.94,1.69,1.68,1.85-.48,3.79,0,.3,1.16,1.5,3.39,2.83,3.49,0,2.17,2.68,3.21,4.63,2.4,2.57-1.08,1-4.31,2.59-5.31-.45-2.31,1.87-2.46,3.49-1.94-.05-.67.11-1.45.08-2.13,2.08-.88,3.2-.06,5.2-.24,2.32-.24,2.48-2.7,4.86-3.52a6.51,6.51,0,0,1,2.31.1c.36-.83.45-2,.8-2.64a2.09,2.09,0,0,1,2.3-1.26c.69.19,1,.93,1.76,1.12,1.21.3,1.88-.78,2.78-1.39a2.59,2.59,0,0,1,3.69.39c1.52,1.6,1.43,3.62,1.72,5.67.2,1.47,1.17,3.44,2.92,3.27s2.89-1.56,4.54.1c.95.95,1.34,3.23,3.24,2.58,1.14-.38,2.61-2.16,3.63-.21.58,1.11.09,2.31,1.42,3.23a2.43,2.43,0,0,1,2.11-.46c.95.47.38,1.63,1,2.26,1.36,1.36,3.63-1.45,4.73.77.42.82-.11,1.76,1,2.25.74.35,1.52,0,2.29.49,1.16.8.51,1.75.86,2.88C451.05,229.08,452.05,229.63,452.24,230.46Z" fill="#9dc02e" opacity="0.5" style="mix-blend-mode:multiply"/><path d="M76.34,184.23c-.54.22-1.25,2.28-2.78,1.37-1.27-.75,0-3.26-2.69-2.44-.28,1.92-2.92,5.08-4.76,2.47-.71-1,.48-3-.32-4.1-.56-.8-2.53-1-3.55-1.41.54-3.66-1.94-5.48-5.69-4.92-.15,1.33-1.2.81-1.4,2-.18,1,.63,1.36.65,2.47-1.25,0-2.55,0-3.8.06.54,1.39-.7,3.51-1.21,4.95a4.58,4.58,0,0,1-3.33-.65c-.31-.19-.58-1.21-1.12-1.57s-1.21.19-1.65,0c-1.07-.48-.85-1.57-2.29-1.41-.46.05-1.63,1.39-2.15,1.72-1.17.75-5.37,3.06-6.51.8-.64-1.27,1.16-1.71.5-3.14s-2.78-.75-3.66-1.68c-1.48-1.56-.09-4.8-2.94-5.89a4.72,4.72,0,0,0-3,.41c-.5.23.05.85-.43,1.15-.68.43-1.44.06-2.07.51-1.12.78-1.17,1.71-2,2.5-.69.62-1.8.42-2.57,1.54-.45.66-.32,1.7-1,2.38s-1.79.68-2.61,1.25c-.67.46-1,1.35-1.76,1.66-1,.4-2.32-.37-3.25-.24-2.26.33-2.28,2.21-3.86,3.86a5.93,5.93,0,0,1-3.55,1.72v34.24H82.45V186.53C80,186.89,79.32,183.06,76.34,184.23Z" fill="#9dc02e"/><path d="M82.45,192.57A2.77,2.77,0,0,1,80,191.9c-1.56-1.5-.92-2.71-3.79-2.39-2.12.23-3,1.34-4.51,2.63-.7.59-1.41.6-1.88,1.54-.27.53,0,1.74-.2,2.36-1,.21-2.21,0-2-1.25a19.64,19.64,0,0,0-2.17,0,4.42,4.42,0,0,1-1.62,2.59c-1.53.92-1.33-.17-2.23-1.08s-2.26-1.52-3.27-2.65c-.65-.72-.68-1.66-1.93-1.5-.06,1.23.39,3.13-.62,4.06-1.22,1.13-2.43-.1-3.53-.32-1.55-.32-2.5.39-3.61-.76-.95-1-.66-1.95-.74-3.35-3.16-1-2.94-4.49-6.72-4.48-2.46,0-4.19,2.53-4.54,5-3,.39-2.63-2.14-4.32-3.18-1-.61-3.4,1.12-3.36-.71-2.19,1.81-2.87.06-3-2.21-1.48,0-1.1-1.19-2.56-.3a5.11,5.11,0,0,0-1.76,3.21c-1.54-.19-1.6.56-2.6,1.32s-1.48,1-2.95.21c-1.22-.64-1-1.3-2.82-1.11-.35,0-1.28.34-1.72.41-.87.13-.75-.59-1.56-.11S9.08,192.56,8,192.9c-1.38.44-1.68-1.2-2.82-1.16s-1.83,1.33-3.15,1.48l-.56,0v30.61H82.45Z" fill="#9dc02e" opacity="0.5" style="mix-blend-mode:multiply"/><path d="M40,222a9.79,9.79,0,0,0-1.06-2.84c-.42-.53-1.3-.7-1.78-1.34s-.68-1.42-1.28-2.12c-.41-.48-.92-.36-1.36-1.13-.62-1-.07-3.38-2.22-3,.14-.4,0-1.12.18-1.46-1.1,0-2.25.05-3.33-.08.52-3.28-3,.06-3.79,0,0-1.26.66-1.77-.55-2.41-.67-.36-2.45,0-3.22,0,.49-3-3.54.2-4.53-.76s.49-1.9.58-2.55c.16-1-.43-1.82-.4-2.83-1.11,0-2.32,1.35-3.18,0-.42-.68.27-1.21-.31-1.9a5.68,5.68,0,0,0-3.8-1.1c-1.21.2-2.62,2-3.74,2-1.86,0-1.13-1.2-1.17-2.57-1.44-.35-1.62.53-2.77.91a2.14,2.14,0,0,1-.76.12v24.85H40.74A15.15,15.15,0,0,1,40,222Z" fill="#9dc02e" opacity="0.5" style="mix-blend-mode:multiply"/><path d="M42.54,223.85H82.45V194.59h-.06a2,2,0,0,1-1.75,1.68c-1.06.26-2.07-.81-2.79-.58-2,.64-1.08,3.28-3.36,3.57-.69.09-1.79-.5-2.25-.38-.79.22-1.18.81-1.88,1.13s-1.22.09-1.92.51c-1.12.68-1.07,1.33-2.4,1.56-1.52.26-3.59-.83-5-.15-1.88.88-1.19,3.63-2.56,5.09-.79.84-1.58.66-1.8,1.89-.16.89.73,1.69.25,2.74-1.26,2.78-4.1.48-6,1.5-1,.49-.89,1.06-.58,2.24a11.77,11.77,0,0,1,.79,3.17l.52.25c-.47,1.53-2.3,1-3.51,1.28-1.51.39-1.94,1.23-3.26,2.11A25.31,25.31,0,0,0,42.54,223.85Z" fill="#9dc02e" opacity="0.5" style="mix-blend-mode:multiply"/><path d="M587.33,223.9h40V194.53h0a2.07,2.07,0,0,1-1.76,1.68c-1.07.27-2.08-.81-2.8-.58-2,.64-1.08,3.3-3.37,3.59-.7.08-1.8-.51-2.26-.39-.79.22-1.19.81-1.89,1.14s-1.23.08-1.92.51c-1.13.68-1.08,1.33-2.42,1.56-1.52.26-3.59-.83-5-.15-1.89.89-1.2,3.64-2.57,5.11-.8.84-1.59.66-1.81,1.9-.16.89.73,1.69.25,2.75-1.27,2.79-4.11.48-6.07,1.5-1,.49-.89,1.07-.58,2.25a11.57,11.57,0,0,1,.79,3.18,5,5,0,0,0,.53.25c-.48,1.54-2.32,1-3.53,1.28-1.51.4-1.94,1.25-3.27,2.13A25.54,25.54,0,0,0,587.33,223.9Z" fill="#9dc02e" opacity="0.5" style="mix-blend-mode:multiply"/><polygon points="365.28 160.64 345.19 151.19 230.3 151.19 230.3 160.64 365.28 160.64" fill="#96918c"/><polygon points="316.77 158.42 316.77 154.5 352.22 154.5 345.19 151.19 230.3 151.19 230.3 154.5 255.52 154.5 255.52 158.42 316.77 158.42" fill="#9b9b9b" style="mix-blend-mode:multiply"/><polygon points="313.99 67.14 176.56 67.14 176.56 111.19 348.91 111.19 313.99 67.14" fill="#96918c"/><polygon points="83.49 88.14 158.62 26.89 233.75 88.14 238.39 88.14 158.62 23.11 84.48 83.56 83.49 88.14" fill="#5c4b44"/><polygon points="158.62 24.87 84.44 85.36 90.27 88.14 158.62 32.41 226.98 88.14 236.2 88.14 236.2 88.13 158.62 24.87" fill="#fff"/><rect x="227.06" y="113.41" width="31.62" height="37.78" fill="#b0b0b0"/><rect x="313.95" y="113.41" width="31.22" height="37.78" fill="#b0b0b0"/><rect x="227.06" y="111.2" width="121.84" height="2.21" fill="#fff"/><rect x="258.72" y="107.79" width="55.26" height="46.71" fill="#cfcfcf"/><polygon points="257.26 105.96 286.35 82.5 315.45 105.96 257.26 105.96" fill="#cfcfcf"/><polygon points="227.06 141.84 227.06 88.22 158.62 32.41 90.18 88.22 90.18 141.84 227.06 141.84" fill="#cfcfcf"/><g style="mix-blend-mode:multiply"><rect x="90.18" y="104.21" width="136.89" height="0.91" fill="#cfcfcf"/><rect x="90.18" y="99.64" width="136.89" height="0.91" fill="#cfcfcf"/><rect x="90.18" y="108.77" width="136.89" height="0.91" fill="#cfcfcf"/><rect x="90.18" y="95.08" width="136.89" height="0.91" fill="#cfcfcf"/><rect x="90.18" y="113.33" width="136.89" height="0.91" fill="#cfcfcf"/><rect x="90.18" y="136.15" width="136.89" height="0.91" fill="#cfcfcf"/><rect x="90.18" y="117.9" width="136.89" height="0.91" fill="#cfcfcf"/><rect x="90.18" y="90.51" width="136.89" height="0.91" fill="#cfcfcf"/><rect x="90.18" y="131.59" width="136.89" height="0.91" fill="#cfcfcf"/><rect x="90.18" y="122.46" width="136.89" height="0.91" fill="#cfcfcf"/><rect x="90.18" y="127.03" width="136.89" height="0.91" fill="#cfcfcf"/><polygon points="98.55 81.39 97.44 82.3 219.81 82.3 218.69 81.39 98.55 81.39" fill="#cfcfcf"/><polygon points="132.14 54 131.02 54.91 186.22 54.91 185.1 54 132.14 54" fill="#cfcfcf"/><polygon points="143.33 44.88 142.21 45.79 175.03 45.79 173.91 44.88 143.33 44.88" fill="#cfcfcf"/><polygon points="137.74 49.44 136.62 50.35 180.63 50.35 179.51 49.44 137.74 49.44" fill="#cfcfcf"/><polygon points="148.93 40.31 147.81 41.22 169.43 41.22 168.31 40.31 148.93 40.31" fill="#cfcfcf"/><polygon points="154.53 35.75 153.41 36.66 163.83 36.66 162.72 35.75 154.53 35.75" fill="#cfcfcf"/><polygon points="115.34 67.69 114.23 68.61 203.02 68.61 201.9 67.69 115.34 67.69" fill="#cfcfcf"/><polygon points="104.15 76.82 103.03 77.73 214.21 77.73 213.09 76.82 104.15 76.82" fill="#cfcfcf"/><polygon points="109.75 72.26 108.63 73.17 208.61 73.17 207.5 72.26 109.75 72.26" fill="#cfcfcf"/><polygon points="126.54 58.57 125.42 59.48 191.82 59.48 190.7 58.57 126.54 58.57" fill="#cfcfcf"/><polygon points="120.94 63.13 119.82 64.04 197.42 64.04 196.3 63.13 120.94 63.13" fill="#cfcfcf"/><polygon points="92.95 85.95 91.84 86.86 225.41 86.86 224.29 85.95 92.95 85.95" fill="#cfcfcf"/></g><polygon points="90.18 88.22 90.18 93.85 90.27 93.85 158.62 38.12 226.98 93.85 227.06 93.85 227.06 88.22 158.62 32.41 90.18 88.22" fill="#cfcfcf" style="mix-blend-mode:multiply"/><rect x="82.18" y="155.97" width="97.66" height="65.89" fill="#5c4b44"/><rect x="103.42" y="165.32" width="54.92" height="44.97" fill="#6b94aa"/><rect x="179.84" y="155.97" width="45.83" height="65.89" fill="#cfcfcf"/><rect x="179.84" y="201.67" width="45.83" height="20.19" fill="#5c4b44"/><rect x="189.07" y="169.74" width="27.36" height="52.11" fill="#fff"/><rect x="179.84" y="155.97" width="3.5" height="65.89" fill="#cfcfcf" style="mix-blend-mode:multiply"/><path d="M137.73,164.86H103v45.83h55.37V164.86Zm19.7,7.22h-5.72v-6.3h5.72ZM128,202.56V196h5.39v6.52Zm5.39.91v6.3H128v-6.3Zm0-30.48v6.52H128V173Zm-5.39-.91v-6.3h5.39v6.3Zm12,23h-2.24v-6.34H140Zm-18.64-14.71h2.24v6.34h-2.24ZM140,186.76h-2.24v-6.34H140Zm-3.15,0h-2.56v-6.34h2.56Zm-3.47,0H128v-6.34h5.39Zm-6.3,0h-2.57v-6.34h2.57Zm-10.38,0h-6.16v-6.34h6.16Zm0,2v6.34h-6.16v-6.34Zm4.66,0h2.24v6.34h-2.24Zm3.15,0h2.57v6.34h-2.57Zm3.48,0h5.39v6.34H128Zm6.3,0h2.56v6.34h-2.56Zm10.37,0h6.17v6.34h-6.17Zm0-2v-6.34h6.17v6.34Zm0-7.25V173h6.17v6.52Zm0-7.43v-6.3h6.17v6.3ZM140,179.51h-2.24V173H140Zm-3.15,0h-2.56V173h2.56Zm-9.77,0h-2.57V173h2.57Zm-3.48,0h-2.24V173h2.24Zm-6.9-7.43h-6.16v-6.3h6.16Zm0,.91v6.52h-6.16V173Zm-7.08,6.52h-5.71V173h5.71Zm0,.91v6.34h-5.71v-6.34Zm0,8.37v6.34h-5.71v-6.34Zm0,7.25v6.52h-5.71V196Zm.92,0h6.16v6.52h-6.16Zm6.16,7.43v6.3h-6.16v-6.3Zm4.66-7.43h2.24v6.52h-2.24Zm3.15,0h2.57v6.52h-2.57Zm9.78,0h2.56v6.52h-2.56Zm3.47,0H140v6.52h-2.24Zm6.9,7.43h6.17v6.3h-6.17Zm0-.91V196h6.17v6.52Zm7.08-6.52h5.72v6.52h-5.72Zm0-.91v-6.34h5.72v6.34Zm0-8.37v-6.34h5.72v6.34Zm0-7.25V173h5.72v6.52ZM140,165.78v6.3h-2.24v-6.3Zm-3.15,6.3h-2.56v-6.3h2.56Zm-9.77-6.3v6.3h-2.57v-6.3Zm-3.48,6.3h-2.24v-6.3h2.24Zm-14-6.3v6.3h-5.71v-6.3Zm-5.71,37.69h5.71v6.3h-5.71Zm17.45,6.3v-6.3h2.24v6.3Zm3.15-6.3h2.57v6.3h-2.57Zm9.78,6.3v-6.3h2.56v6.3Zm3.47-6.3H140v6.3h-2.24Zm14,6.3v-6.3h5.72v6.3Z" fill="#fff"/><path d="M225.66,159.72H82.18v10.69c7.69-1.28,21.26-2.14,36.74-2.14,24,0,43.43,2,43.43,4.57H173c0-2.52,10.63-4.57,23.75-4.57s23.75,2,23.75,4.57h5.16Z" fill="#cfcfcf" style="mix-blend-mode:multiply"/><rect x="192.38" y="172.53" width="20.75" height="46.38" fill="#04435b"/><rect x="196.27" y="175.9" width="12.95" height="5.86" fill="#fff"/><g opacity="0.3" style="mix-blend-mode:multiply"><rect x="196.27" y="184.63" width="4.48" height="12.54" fill="#04435b"/><rect x="204.74" y="184.63" width="4.48" height="12.54" fill="#04435b"/><rect x="196.27" y="201.67" width="4.48" height="12.54" fill="#04435b"/><rect x="204.74" y="201.67" width="4.48" height="12.54" fill="#04435b"/></g><path d="M65.53,156v9.35h10c0-2.52,19.45-4.57,43.44-4.57s43.43,2.05,43.43,4.57H173c0-2.52,10.63-4.57,23.75-4.57s23.75,2.05,23.75,4.57h9.8V156Z" fill="#fff"/><rect x="65.53" y="165.32" width="11.33" height="2.04" fill="#e6e6e6"/><rect x="67.59" y="167.36" width="7.22" height="54.49" fill="#fff"/><rect x="164.07" y="167.36" width="7.22" height="54.49" fill="#fff"/><rect x="222.06" y="167.36" width="7.22" height="54.49" fill="#fff"/><rect x="162.01" y="165.32" width="11.33" height="2.04" fill="#e6e6e6"/><rect x="58.84" y="153.03" width="174.65" height="2.94" fill="#fff"/><rect x="65.53" y="155.85" width="164.77" height="2.57" fill="#cfcfcf" style="mix-blend-mode:multiply"/><rect x="230.3" y="160.64" width="134.98" height="2.94" fill="#fff"/><rect x="229.27" y="166.12" width="132.89" height="55.73" fill="#cfcfcf"/><g opacity="0.5" style="mix-blend-mode:multiply"><rect x="229.27" y="177.08" width="132.89" height="0.91" fill="#cfcfcf"/><rect x="229.27" y="172.82" width="132.89" height="0.91" fill="#cfcfcf"/><rect x="229.27" y="168.55" width="132.89" height="0.91" fill="#cfcfcf"/><rect x="229.27" y="181.35" width="132.89" height="0.91" fill="#cfcfcf"/><rect x="229.27" y="194.15" width="132.89" height="0.91" fill="#cfcfcf"/><rect x="229.27" y="185.62" width="132.89" height="0.91" fill="#cfcfcf"/><rect x="229.27" y="198.42" width="132.89" height="0.91" fill="#cfcfcf"/><rect x="229.27" y="189.89" width="132.89" height="0.91" fill="#cfcfcf"/></g><rect x="229.27" y="201.67" width="132.89" height="20.19" fill="#5c4b44"/><rect x="230.3" y="163.59" width="133.91" height="2.53" fill="#e6e6e6"/><rect x="220" y="165.32" width="11.33" height="2.04" fill="#e6e6e6"/><polygon points="240.94 170.96 240.94 221.85 246.25 221.85 246.25 175.9 345.19 175.9 345.19 221.85 350.51 221.85 350.51 170.96 240.94 170.96" fill="#fff"/><rect x="246.25" y="175.9" width="98.94" height="45.95" fill="#fff"/><path d="M292.59,182.92c0-1.73-9.39-3.13-21-3.13s-21,1.4-21,3.13v2.4h41.94Z" fill="#1a201e"/><path d="M292.59,183.22h-2v-1.64c-.27-.09-.58-.17-.91-.25v1.89h-4.49v-2.69l-.92-.11v2.8h-4.49V180l-.91-.05v3.24h-4.61v-3.41l-2.63,0-2.64,0v3.41h-4.6V180l-.91.05v3.19H259v-2.8l-.91.11v2.69h-4.5v-1.89c-.33.08-.63.16-.91.25v1.64h-2v.91h2v1.19h.91v-1.19h4.5v1.19H259v-1.19h4.5v1.19h.91v-1.19H269v1.19h5.27v-1.19h4.61v1.19h.91v-1.19h4.49v1.19h.92v-1.19h4.49v1.19h.91v-1.19h2Z" fill="#fff"/><path d="M340.79,182.92c0-1.73-9.39-3.13-21-3.13s-21,1.4-21,3.13v2.4h41.94Z" fill="#1a201e"/><path d="M340.79,183.22h-2v-1.64c-.28-.09-.58-.17-.91-.25v1.89h-4.5v-2.69l-.91-.11v2.8H328V180l-.91-.05v3.24h-4.6v-3.41l-2.64,0-2.63,0v3.41h-4.6V180l-.92.05v3.19h-4.49v-2.8l-.92.11v2.69h-4.49v-1.89c-.33.08-.64.16-.91.25v1.64h-2v.91h2v1.19h.91v-1.19h4.49v1.19h.92v-1.19h4.49v1.19h.92v-1.19h4.6v1.19h5.27v-1.19h4.6v1.19H328v-1.19h4.5v1.19h.91v-1.19h4.5v1.19h.91v-1.19h2Z" fill="#fff"/><path d="M345.19,188.37V187.3H246.25v1.07H252V199.3h-5.71v1.06H252v10.93h-5.71v1.07H252v9.49h1v-9.49h11.31v9.49h1v-9.49h11.32v9.49h1v-9.49H289v9.49h1v-9.49h11.32v9.49h1v-9.49h11.31v9.49h1v-9.49h11.32v9.49h1v-9.49h11.31v9.49h1v-9.49h5.71v-1.07h-5.71V200.36h5.71V199.3h-5.71V188.37Zm-67.48,0H289V199.3H277.71Zm-1,10.93H265.35V188.37h11.32Zm13.39-10.93h11.32V199.3H290.06Zm12.36,0h11.31V199.3H302.42Zm12.35,0h11.32V199.3H314.77Zm-61.77,0h11.31V199.3H253Zm0,22.92V200.36h11.31v10.93Zm12.35,0V200.36h11.32v10.93Zm12.36,0V200.36H289v10.93Zm12.35,0V200.36h11.32v10.93Zm12.36,0V200.36h11.31v10.93Zm12.35,0V200.36h11.32v10.93Zm23.67,0H327.13V200.36h11.31Zm0-12H327.13V188.37h11.31Z" fill="#cfcfcf" style="mix-blend-mode:multiply"/><rect x="246.25" y="175.9" width="98.94" height="5.86" fill="#cfcfcf" style="mix-blend-mode:multiply"/><rect x="229.27" y="166.12" width="132.89" height="7.82" fill="#cfcfcf" style="mix-blend-mode:multiply"/><polygon points="229.27 171.6 222.06 177.41 222.06 167.37 229.27 167.37 229.27 171.6" fill="#cfcfcf" style="mix-blend-mode:multiply"/><polygon points="171.28 171.6 164.07 177.41 164.07 167.37 171.28 167.37 171.28 171.6" fill="#cfcfcf" style="mix-blend-mode:multiply"/><polygon points="74.81 171.6 67.59 177.41 67.59 167.37 74.81 167.37 74.81 171.6" fill="#cfcfcf" style="mix-blend-mode:multiply"/><polygon points="58.84 153.03 81.73 141.84 178.03 141.84 178.03 140.23 230.3 140.23 233.49 153.03 58.84 153.03" fill="#96918c"/><polygon points="129.88 40.62 81.73 85.79 81.73 141.84 178.03 141.84 178.03 85.79 129.88 40.62" fill="#5c4b44"/><polygon points="129.88 40.62 81.73 85.79 81.73 92.34 129.88 47.17 178.03 92.34 178.03 85.79 129.88 40.62" fill="#cfcfcf" style="mix-blend-mode:multiply"/><rect x="96.99" y="95.14" width="20.34" height="37.77" fill="#6b94aa"/><rect x="86.82" y="95.14" width="10.17" height="37.77" fill="#04435b"/><rect x="88.83" y="97.45" width="6.15" height="13.82" fill="none" stroke="#04435b" stroke-miterlimit="10" opacity="0.4" style="mix-blend-mode:multiply"/><rect x="88.83" y="116.78" width="6.15" height="13.82" fill="none" stroke="#04435b" stroke-miterlimit="10" opacity="0.4" style="mix-blend-mode:multiply"/><rect x="117.33" y="95.14" width="10.17" height="37.77" fill="#04435b"/><rect x="119.34" y="97.45" width="6.15" height="13.82" fill="none" stroke="#04435b" stroke-miterlimit="10" opacity="0.4" style="mix-blend-mode:multiply"/><rect x="119.34" y="116.78" width="6.15" height="13.82" fill="none" stroke="#04435b" stroke-miterlimit="10" opacity="0.4" style="mix-blend-mode:multiply"/><path d="M115.83,96.64v34.77H98.49V96.64h17.34m1.5-1.5H97v37.77h20.34V95.14Z" fill="#fff"/><line x1="110.68" y1="95.14" x2="110.68" y2="132.9" fill="none" stroke="#fff" stroke-miterlimit="10"/><line x1="103.63" y1="95.14" x2="103.63" y2="132.9" fill="none" stroke="#fff" stroke-miterlimit="10"/><line x1="96.99" y1="114.02" x2="117.33" y2="114.02" fill="none" stroke="#fff" stroke-miterlimit="10" stroke-width="1.5"/><line x1="96.99" y1="122.96" x2="117.33" y2="122.96" fill="none" stroke="#fff" stroke-miterlimit="10"/><line x1="96.99" y1="105.08" x2="117.33" y2="105.08" fill="none" stroke="#fff" stroke-miterlimit="10"/><rect x="142.44" y="95.14" width="20.34" height="37.77" fill="#6b94aa"/><rect x="132.27" y="95.14" width="10.17" height="37.77" fill="#04435b"/><rect x="134.28" y="97.45" width="6.15" height="13.82" fill="none" stroke="#04435b" stroke-miterlimit="10" opacity="0.4" style="mix-blend-mode:multiply"/><rect x="134.28" y="116.78" width="6.15" height="13.82" fill="none" stroke="#04435b" stroke-miterlimit="10" opacity="0.4" style="mix-blend-mode:multiply"/><rect x="162.78" y="95.14" width="10.17" height="37.77" fill="#04435b"/><rect x="164.79" y="97.45" width="6.15" height="13.82" fill="none" stroke="#04435b" stroke-miterlimit="10" opacity="0.4" style="mix-blend-mode:multiply"/><rect x="164.79" y="116.78" width="6.15" height="13.82" fill="none" stroke="#04435b" stroke-miterlimit="10" opacity="0.4" style="mix-blend-mode:multiply"/><path d="M161.28,96.64v34.77H143.94V96.64h17.34m1.5-1.5H142.44v37.77h20.34V95.14Z" fill="#fff"/><line x1="156.13" y1="95.14" x2="156.13" y2="132.9" fill="none" stroke="#fff" stroke-miterlimit="10"/><line x1="149.08" y1="95.14" x2="149.08" y2="132.9" fill="none" stroke="#fff" stroke-miterlimit="10"/><line x1="142.44" y1="114.02" x2="162.78" y2="114.02" fill="none" stroke="#fff" stroke-miterlimit="10" stroke-width="1.5"/><line x1="142.44" y1="122.96" x2="162.78" y2="122.96" fill="none" stroke="#fff" stroke-miterlimit="10"/><line x1="142.44" y1="105.08" x2="162.78" y2="105.08" fill="none" stroke="#fff" stroke-miterlimit="10"/><rect x="192.63" y="101.18" width="18.57" height="34.48" fill="#6b94aa"/><rect x="183.35" y="101.18" width="9.28" height="34.48" fill="#04435b"/><g opacity="0.4" style="mix-blend-mode:multiply"><path d="M191.22,116.32h-6.45V102.87h6.45Zm-5.62-.83h4.78V103.7H185.6Z" fill="#04435b"/></g><g opacity="0.4" style="mix-blend-mode:multiply"><path d="M191.22,134h-6.45V120.52h6.45Zm-5.62-.83h4.78V121.35H185.6Z" fill="#04435b"/></g><rect x="211.21" y="101.18" width="9.29" height="34.48" fill="#04435b"/><g opacity="0.4" style="mix-blend-mode:multiply"><path d="M219.07,116.32h-6.45V102.87h6.45Zm-5.61-.83h4.78V103.7h-4.78Z" fill="#04435b"/></g><g opacity="0.4" style="mix-blend-mode:multiply"><path d="M219.07,134h-6.45V120.52h6.45Zm-5.61-.83h4.78V121.35h-4.78Z" fill="#04435b"/></g><path d="M210,102.43v32H193.88v-32H210m1.25-1.25H192.63v34.48h18.58V101.18Z" fill="#fff"/><rect x="204.72" y="101.18" width="0.83" height="34.48" fill="#fff"/><rect x="198.28" y="101.18" width="0.83" height="34.48" fill="#fff"/><rect x="192.63" y="117.8" width="18.57" height="1.25" fill="#fff"/><rect x="192.63" y="126.16" width="18.57" height="0.83" fill="#fff"/><rect x="192.63" y="109.84" width="18.57" height="0.83" fill="#fff"/><rect x="192.63" y="99.61" width="18.57" height="1.57" fill="#fff"/><g style="mix-blend-mode:multiply"><rect x="192.63" y="99.61" width="18.57" height="0.78" fill="#cfcfcf"/></g><rect x="191.52" y="96.51" width="20.79" height="3.1" fill="#fff"/><rect x="190.71" y="94.54" width="22.42" height="1.97" fill="#fff"/><rect x="189.83" y="93.89" width="24.19" height="0.65" fill="#fff"/><rect x="190.71" y="94.54" width="22.42" height="0.79" fill="#cfcfcf"/><g style="mix-blend-mode:multiply"><rect x="191.52" y="96.51" width="20.79" height="1.55" fill="#cfcfcf"/></g><g style="mix-blend-mode:multiply"><rect x="192.63" y="101.18" width="18.57" height="0.79" fill="#cfcfcf"/></g><rect x="234.14" y="120.73" width="18.57" height="26.44" fill="#6b94aa"/><path d="M251.46,121.69v24.52H235.39V121.69h16.07m1.25-1H234.14v26.44h18.57V120.73Z" fill="#fff"/><rect x="246.23" y="120.73" width="0.83" height="26.44" fill="#fff"/><rect x="239.79" y="120.73" width="0.83" height="26.44" fill="#fff"/><rect x="234.14" y="133.47" width="18.57" height="0.96" fill="#fff"/><rect x="234.14" y="139.89" width="18.57" height="0.64" fill="#fff"/><rect x="234.14" y="127.37" width="18.57" height="0.64" fill="#fff"/><rect x="234.14" y="119.52" width="18.57" height="1.21" fill="#fff"/><g style="mix-blend-mode:multiply"><rect x="234.14" y="119.52" width="18.57" height="0.6" fill="#cfcfcf"/></g><rect x="233.03" y="118.4" width="20.8" height="1.12" fill="#fff"/><rect x="232.22" y="117.7" width="22.42" height="0.71" fill="#fff"/><rect x="231.33" y="117.46" width="24.19" height="0.24" fill="#fff"/><rect x="232.22" y="117.7" width="22.42" height="0.29" fill="#cfcfcf"/><g style="mix-blend-mode:multiply"><rect x="233.03" y="118.4" width="20.8" height="0.56" fill="#cfcfcf"/></g><g style="mix-blend-mode:multiply"><rect x="234.14" y="120.73" width="18.57" height="0.6" fill="#cfcfcf"/></g><rect x="320.28" y="120.73" width="18.57" height="26.44" fill="#6b94aa"/><path d="M337.6,121.69v24.52H321.53V121.69H337.6m1.25-1H320.28v26.44h18.57V120.73Z" fill="#fff"/><rect x="332.37" y="120.73" width="0.83" height="26.44" fill="#fff"/><rect x="325.93" y="120.73" width="0.83" height="26.44" fill="#fff"/><rect x="320.28" y="133.47" width="18.57" height="0.96" fill="#fff"/><rect x="320.28" y="139.89" width="18.57" height="0.64" fill="#fff"/><rect x="320.28" y="127.37" width="18.57" height="0.64" fill="#fff"/><rect x="320.28" y="119.52" width="18.57" height="1.21" fill="#fff"/><g style="mix-blend-mode:multiply"><rect x="320.28" y="119.52" width="18.57" height="0.6" fill="#cfcfcf"/></g><rect x="319.17" y="118.4" width="20.79" height="1.12" fill="#fff"/><rect x="318.36" y="117.7" width="22.42" height="0.71" fill="#fff"/><rect x="317.47" y="117.46" width="24.19" height="0.24" fill="#fff"/><rect x="318.36" y="117.7" width="22.42" height="0.29" fill="#cfcfcf"/><g style="mix-blend-mode:multiply"><rect x="319.17" y="118.4" width="20.79" height="0.56" fill="#cfcfcf"/></g><g style="mix-blend-mode:multiply"><rect x="320.28" y="120.73" width="18.57" height="0.6" fill="#cfcfcf"/></g><rect x="277.07" y="114.47" width="18.57" height="31.03" fill="#6b94aa"/><path d="M294.39,115.59v28.79H278.32V115.59h16.07m1.25-1.12H277.07v31h18.57v-31Z" fill="#fff"/><rect x="289.16" y="114.47" width="0.83" height="31.03" fill="#fff"/><rect x="282.72" y="114.47" width="0.83" height="31.03" fill="#fff"/><rect x="277.07" y="129.42" width="18.57" height="1.12" fill="#fff"/><rect x="277.07" y="136.95" width="18.57" height="0.75" fill="#fff"/><rect x="277.07" y="122.27" width="18.57" height="0.75" fill="#fff"/><rect x="261.58" y="114.47" width="13.4" height="31.03" fill="#6b94aa"/><path d="M274.08,115.59v28.79H262.49V115.59h11.59m.91-1.12H261.58v31H275v-31Z" fill="#fff"/><rect x="270.31" y="114.47" width="0.6" height="31.03" fill="#fff"/><rect x="265.66" y="114.47" width="0.6" height="31.03" fill="#fff"/><rect x="261.58" y="129.42" width="13.4" height="1.12" fill="#fff"/><rect x="261.58" y="136.95" width="13.4" height="0.75" fill="#fff"/><rect x="261.58" y="122.27" width="13.4" height="0.75" fill="#fff"/><rect x="297.72" y="114.47" width="13.4" height="31.03" fill="#6b94aa"/><path d="M310.22,115.59v28.79H298.63V115.59h11.59m.9-1.12h-13.4v31h13.4v-31Z" fill="#fff"/><rect x="306.45" y="114.47" width="0.6" height="31.03" fill="#fff"/><rect x="301.8" y="114.47" width="0.6" height="31.03" fill="#fff"/><rect x="297.72" y="129.42" width="13.4" height="1.12" fill="#fff"/><rect x="297.72" y="136.95" width="13.4" height="0.75" fill="#fff"/><rect x="297.72" y="122.27" width="13.4" height="0.75" fill="#fff"/><polygon points="253.55 107.79 286.35 81.33 319.16 107.79 322.07 107.79 286.35 78.99 250.64 107.79 253.55 107.79" fill="#5c4b44"/><path d="M286.35,84.84l23.93,19.3H262.43l23.92-19.3m0-4.68-34.26,27.63h68.53L286.35,80.16Z" fill="#fff"/><polygon points="75.23 85.79 129.88 34.51 184.53 85.79 188.53 85.79 129.88 30.76 71.23 85.79 75.23 85.79" fill="#5c4b44"/><polygon points="129.88 32.64 73.23 85.79 81.73 85.79 129.88 40.62 178.03 85.79 186.53 85.79 129.88 32.64" fill="#fff"/><polygon points="230.3 140.23 178.03 140.23 178.03 141.84 81.73 141.84 79.3 143.03 183.33 143.03 183.33 141.84 230.7 141.84 230.3 140.23" fill="#9b9b9b" style="mix-blend-mode:multiply"/><rect x="58.84" y="221.85" width="157.57" height="2" fill="#9b9b9b"/><rect x="240.96" y="221.85" width="121.21" height="2" fill="#edeceb"/><rect x="216.41" y="221.85" width="24.55" height="2" fill="#d4d4d4"/><rect x="-0.51" y="223.85" width="642.38" height="118.95" fill="#9dc02e"/><ellipse cx="435.71" cy="276.24" rx="39.5" ry="1.94" fill="#9dc02e" opacity="0.4" style="mix-blend-mode:multiply"/><rect x="437.25" y="196.31" width="6.22" height="79.92" fill="#b7650b"/><rect x="434.79" y="196.31" width="2.46" height="79.92" fill="#894c08"/><rect x="407.15" y="201.32" width="66.4" height="45.84" rx="1.59" fill="#8c1222"/><rect x="408.81" y="201.32" width="66.4" height="45.84" rx="1.59" fill="#ff213d"/><path d="M427.64,209.29h6.68v1.34h-5.08v4.12h4.7v1.33h-4.7v5.61h-1.6Z" fill="#fff"/><path d="M447.2,215.36c0,4.27-2.59,6.53-5.76,6.53s-5.57-2.54-5.57-6.29c0-3.94,2.44-6.52,5.76-6.52S447.2,211.68,447.2,215.36Zm-9.62.2c0,2.65,1.43,5,3.95,5s4-2.33,4-5.15c0-2.46-1.29-5-4-5S437.58,212.84,437.58,215.56Z" fill="#fff"/><path d="M449.28,209.45a17.16,17.16,0,0,1,3.07-.26,5.07,5.07,0,0,1,3.59,1,3.07,3.07,0,0,1,1,2.35,3.28,3.28,0,0,1-2.34,3.17v.05a3.08,3.08,0,0,1,1.82,2.5,19.14,19.14,0,0,0,1,3.41H455.7a16.36,16.36,0,0,1-.83-3c-.37-1.71-1-2.36-2.48-2.41h-1.51v5.37h-1.6Zm1.6,5.65h1.64c1.71,0,2.79-.94,2.79-2.35,0-1.6-1.16-2.3-2.85-2.32a6.92,6.92,0,0,0-1.58.14Z" fill="#fff"/><path d="M424.16,237.1a5.55,5.55,0,0,0,2.87.81c1.64,0,2.59-.86,2.59-2.11s-.66-1.82-2.33-2.47c-2-.72-3.28-1.76-3.28-3.51,0-1.94,1.6-3.37,4-3.37a5.54,5.54,0,0,1,2.74.61l-.44,1.3a4.91,4.91,0,0,0-2.35-.59c-1.7,0-2.34,1-2.34,1.86,0,1.16.75,1.73,2.46,2.4,2.1.8,3.17,1.82,3.17,3.64s-1.42,3.57-4.34,3.57a6.43,6.43,0,0,1-3.17-.79Z" fill="#fff"/><path d="M435.45,235.15l-1.28,3.9h-1.66l4.21-12.4h1.94l4.23,12.4h-1.71l-1.33-3.9Zm4.07-1.25-1.21-3.57c-.28-.81-.46-1.54-.65-2.26h0c-.18.73-.38,1.49-.62,2.24l-1.22,3.59Z" fill="#fff"/><path d="M444.71,226.65h1.6v11.06h5.3v1.34h-6.9Z" fill="#fff"/><path d="M459.81,233.24H455v4.47h5.37v1.34h-7v-12.4h6.7V228H455v3.92h4.82Z" fill="#fff"/><path d="M466.13,247.16H410.4a1.59,1.59,0,0,1-1.59-1.59V202.91a1.59,1.59,0,0,1,1.59-1.59h9.1c-1.11,18.43,18.27,38.14,46.14,45.71Z" opacity="0.2"/><path d="M641.87,298.74c-20.65-2.25-40.28-5.65-53.71-8.14-22-4.08-43.36-3.8-67-3.8-43.71,0-86.46.45-128.62-5.06-31.88-4.16-62.32-9.09-93.75-14.12-38.58-6.16-76.91-11.18-116.35-16-36.86-4.53-70-5.8-108.11-5.8-19.14,0-37.93-.35-56.05,2-6.12.8-12.4,1.92-18.75,2.92V342.8H641.87Z" fill="#9dc02e" opacity="0.4" style="mix-blend-mode:multiply"/><path d="M179.55,247.91H165.91a2.72,2.72,0,0,1-2.72-2.72v-6.67a2.72,2.72,0,0,1,2.72-2.71h13.64a2.72,2.72,0,0,1,2.71,2.71v6.67A2.72,2.72,0,0,1,179.55,247.91Zm-13.64-10.29a.9.9,0,0,0-.91.9v6.67a.91.91,0,0,0,.91.91h13.64a.9.9,0,0,0,.9-.91v-6.67a.9.9,0,0,0-.9-.9Z" fill="#1d2026"/><path d="M215.62,217.4l-1.88-2.12-5.81-1.73L204,214.74l1.7,4.08,1.77.33L207,226s3.13.48,8.27-2l5.13-.93v-6.6Z" fill="#ff8c63"/><polygon points="217.38 216.45 249.91 204.51 262.3 179.85 269.42 192.46 256.05 214.74 218.11 224.56 217.38 216.45" fill="#16181d"/><polygon points="262.93 238.58 259.26 343.7 267.9 343.7 291.08 237.25 262.93 238.58" fill="#16181d"/><polygon points="304.84 343.7 296.2 343.7 269.93 249.66 267.9 242.38 294.68 237.25 295.28 243.54 304.84 343.7" fill="#1d2026"/><path d="M295.28,243.54a57.61,57.61,0,0,1-9.4,3.49,75.75,75.75,0,0,1-12.22,2.32c-1.42.16-2.68.25-3.73.31l-2-7.28,26.78-5.13Z" fill="#16181d"/><path d="M267.34,173.69l-4,4.22s-5.66,2.58-6.28,71.36c0,0,10-1.52,16.64-2.94l.66-61.11Z" fill="#16181d"/><polygon points="266.56 172.06 262.93 199.43 268.3 175.57 266.56 172.06" fill="#262a32"/><polygon points="269.42 170.95 266.56 178.8 266.56 172.06 270.79 165.6 272.19 168.18 269.42 170.95" fill="#c7ccd6"/><path d="M298.7,238.52c-1.22.66-2.46,1.26-3.72,1.81a56.93,56.93,0,0,1-9.59,3.17,75.26,75.26,0,0,1-12.3,1.86c-1.68.12-3.15.17-4.31.17-1.87,0-3,0-3,0-3.62-16.11-3.28-46.62-3.28-46.62,14.35-38.87,22.39-35.33,22.39-35.33l9.74,3.28.11,1.9,3,52.57Z" fill="#1d2026"/><path d="M297.73,221.3l-9.24,17.13-1,1.78-.75-.32-.86,1.52-.53,2.09-1,4.09-1.32,3.59c-6.89,2.27-10.26-1.47-10.26-1.47a11.85,11.85,0,0,1,.29-4.35,13.7,13.7,0,0,1,.37-1.36,42.32,42.32,0,0,1,2.78-3.22c1-1.08,1.86-1.91,1.86-1.91l1-2.22-.61-.25,12.82-25.73-2.21-34.14c.34-5.46,3.51-7.23,5.64-7.8Z" fill="#16181d"/><polygon points="275.07 214.45 275.07 219.52 292.35 220.89 292.35 215.52 291.38 219.91 276.04 218.25 275.07 214.45" fill="#16181d"/><polygon points="276.04 222.35 276.04 232.5 290.4 233.38 290.4 223.43 290.14 234.69 275.07 233.29 276.04 222.35" fill="#16181d"/><path d="M279.28,161.31a34.63,34.63,0,0,1,0-9.81s3-15.3-4-18.3c0,0-27.94-3-18.62,7.32,0,0-2.5,12.64,1.16,20.79,0,0,2.33,1.66,8,0a29.18,29.18,0,0,0,4.83,8.64Z" fill="#ff8c63"/><path d="M256.67,140.52c-9.32-10.31,18.62-7.32,18.62-7.32,7,3,4,18.3,4,18.3a25,25,0,0,0-.36,4.64,47.34,47.34,0,0,1-5.75.14c.2-1.12,0-6.53,0-6.53.11-6.11-2.85-5.61-2.85-5.61-3.67.11-3,6.59-3,6.59h-1.62v-4.14c-2.35-1.63-1.94-6.07-1.94-6.07A45.32,45.32,0,0,1,256.67,140.52Z" fill="#1d2026"/><path d="M253.38,154.35a22,22,0,0,1,2.51-6.66,43,43,0,0,0,.16,6.36C255,154.22,253.38,154.35,253.38,154.35Z" fill="#cc704f"/><path d="M269.9,156.31s3.31,3.31-2.84,8a28,28,0,0,1-1.25-3S271.46,160.12,269.9,156.31Z" fill="#cc704f"/><path d="M280.48,159.9s3.32,1.59,3.46,4.1l-6.41,3.68-6.74,8.78L269.42,171Z" fill="#c7ccd6"/><path d="M281.92,160.82s-13.62,12.69-19.38,38.06L279.92,170l-1.57-2.27h2.88l3.69-4.13A17.22,17.22,0,0,0,281.92,160.82Z" fill="#262a32"/><path d="M283.85,239.79,282.32,246,281,249.56c-6.88,2.27-10.25-1.47-10.25-1.47a13.88,13.88,0,0,1,.66-5.71,60.47,60.47,0,0,1,4.64-5.13Z" fill="#ff8c63"/><path d="M282.32,246,281,249.56c-6.88,2.27-10.25-1.47-10.25-1.47a13.88,13.88,0,0,1,.66-5.71S274.11,244.86,282.32,246Z" fill="#cc704f"/><polygon points="284.88 238 283.85 239.79 276.04 237.25 277.19 234.78 284.88 238" fill="#eff2f5"/><path d="M300.67,174.74v35.67l-15.2,28.17-9-3.8,12.81-25.73-2.21-34.13c.51-8.33,7.59-8.09,7.59-8.09C300.73,167.24,300.67,174.74,300.67,174.74Z" fill="#1d2026"/><rect x="150.76" y="241.86" width="40.32" height="28.79" fill="#753806"/><rect x="191.08" y="241.86" width="2.02" height="28.79" fill="#916038"/><path d="M165.17,292c-2,12.5-5.73,51-5.73,51a45.67,45.67,0,0,1,5.35,3.13c4.45,3.13,1.74,3.71,1.74,3.71-9.95-1.65-11.39-4.72-11.39-4.72l-.06-1.37-1.21-24.59c-1-15.38.39-24,1.46-28.12h0a15.29,15.29,0,0,1,1-3c-.13-2.67-.07-6,.09-9.33h0c.05-1,.1-1.92.17-2.88s.12-1.81.18-2.7c.48-6.73,1.14-12.46,1.14-12.46l2.41-.62,5.52-1.4,8.8-2.22c0,3.75-1.18,9.29-2.72,14.9C169.15,281.5,165.17,292,165.17,292Z" fill="#ff8c63"/><path d="M165.87,258.55c-.07.62-.17,1.26-.29,1.93a108.53,108.53,0,0,1-4.46,15.58c-2.32,6.6-4.79,12.58-5.79,14.92a15.29,15.29,0,0,1,1-3,118,118,0,0,1,.26-12.22c.48-7.82,1.32-15.16,1.32-15.16l2.41-.62Z" fill="#cc704f"/><path d="M174.67,256.33c0,3.75-1.18,9.29-2.72,14.9-5.12.95-12,3-15.5,7.38l.92-5.44a4.36,4.36,0,0,0-.57-.14c.48-6.73,1.14-12.46,1.14-12.46l2.41-.62,5.52-1.4Z" fill="#cc704f"/><path d="M171.9,208.58s2.32,21.65,2.63,28.14l-8.23-5.48,2.48-13.64Z" fill="#052950"/><path d="M161,166.82s16.06,18.3,12.65,25c0,0-2.93,17.62-2.44,32.21l-6.83-4.43Z" fill="#06366b"/><path d="M160.62,256.33a27.37,27.37,0,0,1-.27,3.62,94,94,0,0,1-2.78,12.51c-.31,1.1-.63,2.19-.95,3.27-2.6,8.62-5.49,16.24-5.49,16.24-2,12.5-5.74,51-5.74,51a51.33,51.33,0,0,1,4.72,2.69c5.32,3.52,2.37,4.15,2.37,4.15-9.95-1.65-11.38-4.72-11.38-4.72l-.12-2.41-1.16-23.55c-1.52-23.37,2.49-31.16,2.49-31.16a117.91,117.91,0,0,1,.23-11.81c.48-8,1.35-15.57,1.35-15.57Z" fill="#ff8c63"/><path d="M160.62,256.33a27.37,27.37,0,0,1-.27,3.62,94,94,0,0,1-2.78,12.51c-2.82-.29-9.64-.14-15,3.68.48-8,1.35-15.57,1.35-15.57Z" fill="#cc704f"/><path d="M152.48,349.79c-9.95-1.65-11.38-4.72-11.38-4.72l-.12-2.41a35.29,35.29,0,0,0,4.29,2.6c1,.51,2.26,1.29,3.41,1.25.95,0,1.3-.36,1.43-.87C155.43,349.16,152.48,349.79,152.48,349.79Z" fill="#07356b"/><path d="M178.26,267.7H138.69c.53-14.29,2.78-24.29,5-30.88,2.5-7.38,5-10.46,5-10.46H171C176.66,235.67,178.26,267.7,178.26,267.7Z" fill="#06366b"/><path d="M168.62,226.36c-.05,4.39,1.85,7,1,10.54,0,0-15.25,3.88-25.92-.08,2.5-7.38,5-10.46,5-10.46Z" fill="#052950"/><path d="M150.72,161l10.3,5.79s11.36,20.71,10.89,37.57L160,200.48l-22.21-27.72S149.35,164.84,150.72,161Z" fill="#06366b"/><polygon points="168.92 185.91 164.71 174.03 163.74 173.76 163.67 172.2 160.74 166.82 157.08 167.17 168.92 185.91" fill="#052950"/><path d="M150.49,137.83s.86-7.61-6.63-6.25c0,0-9.39,4.25-3.28,13,0,0,2.85,3.48,7.06,0C147.64,144.56,151.31,142.1,150.49,137.83Z" fill="#16181d"/><path d="M168.65,162.52c-2,.52-6.43-1.17-6.43-1.17l-.89,3.28-1.63,6L150.61,164c.42-1.68.19-5.15-.06-7.67-.17-1.69-.36-3-.36-3-7.29-10.28-1.58-16.44-1.58-16.44,9.58-10,21.34,2.47,21.34,2.47C173.18,145,168.65,162.52,168.65,162.52Z" fill="#ff8c63"/><path d="M162.85,139.43c2.6,4.75-1.39,7.08-1.39,7.08-.83,2.58-3.91,2-3.91,2-.41-2.17-1.78-2-1.78-2-3.8.69-2.44,4.89-2.44,4.89a6.21,6.21,0,0,1-2.78,4.94c-.18-1.69-.36-3-.36-3-7.29-10.28-1.58-16.44-1.58-16.44,9.58-10,21.34,2.47,21.34,2.47A49,49,0,0,1,162.85,139.43Z" fill="#16181d"/><path d="M171,148.14c-.13,2.14-.42,4.36-.75,6.4h0a7.55,7.55,0,0,0,2.52,0Z" fill="#cc704f"/><polygon points="165.31 179.42 160.09 168.13 159.74 170.13 165.31 179.42" fill="#ff8c63"/><polygon points="150.72 161.03 160.13 170.11 168.92 185.91 159.85 177.98 160.07 174.72 158.07 174.86 148.96 163.59 150.72 161.03" fill="#052950"/><path d="M171.9,208.58c-.08,6.79,1.1,19.79-1,28.14,0,0-16.91,2.72-27.95-3.84,0,0,5.65-12,8.14-16.74,0,0,2.71-8.14-3.4-17.41,0,0-16.87-19.15-9.9-26l3.84,3.58,30.23,28S171.92,206,171.9,208.58Z" fill="#06366b"/><path d="M171.9,208.58l-17.37-11.2C133,181.79,140.78,177,140.78,177a9.51,9.51,0,0,1,.89-.65l30.23,28S171.92,206,171.9,208.58Z" fill="#052950"/><path d="M202.1,214.74l-3.16,4.82L188,213.2l-3.88-2.26-31.66-18.43c-22.24-14.6-14.65-19.75-14.65-19.75,6.76-6.14,15.65,3.15,15.65,3.15L171.9,194.5l15.45,10.35,3.73,2.5Z" fill="#ff8c63"/><path d="M213.22,219.56s-.18,4.81-7.48,6.8a13.6,13.6,0,0,1-3.09-2.37h0a30.35,30.35,0,0,1-3.7-4.43l3.16-4.82h6a7.31,7.31,0,0,1,2.31,1.12A7.85,7.85,0,0,1,213.22,219.56Z" fill="#ff8c63"/><path d="M187.35,204.85l-3.21,6.09-31.66-18.43c-22.24-14.6-14.65-19.75-14.65-19.75,6.76-6.14,15.65,3.15,15.65,3.15L171.9,194.5Z" fill="#06366b"/><polygon points="191.08 207.35 188.01 213.2 184.14 210.94 187.34 204.85 191.08 207.35" fill="#385e89"/><polygon points="153.52 222.08 151.86 226.91 161.96 227.33 162.63 222.65 162.63 228.57 150.63 227.91 153.52 222.08" fill="#052950"/><path d="M213.22,219.56s-.18,4.81-7.48,6.8a13.6,13.6,0,0,1-3.09-2.37c.25-.05,5.19-.91,7.73-8.13A7.85,7.85,0,0,1,213.22,219.56Z" fill="#cc704f"/><path d="M162.22,161.34h0l-.62,2.28a15.36,15.36,0,0,1-4.27-2.6,7.19,7.19,0,0,1-1.56-6.35v0C155.3,159.7,162.22,161.34,162.22,161.34Z" fill="#cc704f"/><polygon points="217.38 216.45 215.84 216.86 216.37 224.26 218.06 224.03 217.38 216.45" fill="#eff2f5"/></g></svg>