<svg xmlns="http://www.w3.org/2000/svg" xmlns:xlink="http://www.w3.org/1999/xlink" viewBox="0 0 750 500"><defs><linearGradient id="a" x1="217.89" y1="183.69" x2="196.78" y2="172.22" gradientUnits="userSpaceOnUse"><stop offset="0" stop-color="#e1e8f6"/><stop offset="1" stop-color="#fff"/></linearGradient></defs><title>page-not-found</title><path d="M557.19,328.15h56.74a55.69,55.69,0,0,1,55.52,55.52h0a55.68,55.68,0,0,1-55.52,55.52H134.16a90.16,90.16,0,0,1-89.9-89.9h0c0-49.45,40.45-89.91,89.9-89.91h0a38.12,38.12,0,0,0,38-38h0a38.12,38.12,0,0,0-38-38H88.41a39.64,39.64,0,0,1-39.52-39.53h0a39.64,39.64,0,0,1,39.52-39.52h57.85a15.43,15.43,0,0,0,15.39-15.39h0a15.43,15.43,0,0,0-15.39-15.38h-10.2a10.65,10.65,0,0,1-10.61-10.62h0A10.65,10.65,0,0,1,136.06,52.3H203c14.1,0,15.67,16.65,51.27,16.65h82.54a13.9,13.9,0,0,1,13.86,13.86h0a13.89,13.89,0,0,1-13.86,13.85h-13.3a20.14,20.14,0,0,0-20.08,20.08h0a20.14,20.14,0,0,0,20.08,20.08h40.05c54.08,0,61.72,14.13,71.19,42.24s58.66,30.37,58.66,30.37h67.26a30.35,30.35,0,0,1,30.26,30.26h0A30.35,30.35,0,0,1,560.65,270h-3.46a29.18,29.18,0,0,0-29.1,29.1h0a29.18,29.18,0,0,0,29.1,29.1ZM106.27,73.54A10.62,10.62,0,1,0,95.65,62.92,10.62,10.62,0,0,0,106.27,73.54Z" fill="#e1e8f6" fill-rule="evenodd"/><path d="M505.87,439.78c5.75-8.34,17.8-22.2,40.84-36,36.44-21.83,64-50.77,51.91-67.89-11.91-16.8-65.27,15.65-109.59,96.77A98.1,98.1,0,0,0,505.87,439.78Z" fill="#b4c5e6" fill-rule="evenodd"/><path d="M498.75,432.37a22.33,22.33,0,0,1,7.19,1,.47.47,0,0,0,.58-.31.47.47,0,0,0-.32-.58,24.26,24.26,0,0,0-6.9-1c.79-1.34,1.58-2.65,2.37-3.95,1.61,0,6.79-.14,8.74,0a.46.46,0,1,0,0-.92c-1.79-.1-6.19,0-8.23,0q2.22-3.65,4.44-7.06a104.44,104.44,0,0,1,11.72.88.46.46,0,1,0,.13-.91,106.83,106.83,0,0,0-11.27-.89q2.25-3.45,4.48-6.7a154.24,154.24,0,0,1,16.74,1.26.46.46,0,1,0,.13-.91A152.59,152.59,0,0,0,512.36,411q2.94-4.26,5.86-8.18c2.23-.09,11.48-.33,18.43,1.9a.47.47,0,0,0,.29-.89c-6.48-2.07-14.87-2-18-2q3.6-4.79,7.13-9.09c3,.17,15.29,1.1,21,5.15a.46.46,0,0,0,.64-.11.47.47,0,0,0-.11-.65c-5.56-3.93-16.88-5-20.82-5.28q3.75-4.54,7.41-8.57a95.86,95.86,0,0,1,20.25,7.15.46.46,0,0,0,.42-.82,97.38,97.38,0,0,0-20-7.12q2.18-2.36,4.3-4.56a104.63,104.63,0,0,1,23.16,8.31.47.47,0,1,0,.4-.84,107.52,107.52,0,0,0-22.8-8.25c3.37-3.44,6.66-6.57,9.83-9.41,2.69.89,16.31,5.5,23.47,10a.46.46,0,0,0,.64-.14.47.47,0,0,0-.15-.64c-6.87-4.37-19.55-8.77-23.16-10,1.85-1.63,3.67-3.17,5.44-4.62a137.15,137.15,0,0,1,22.49,10.08.46.46,0,0,0,.63-.17.45.45,0,0,0-.17-.63,136.4,136.4,0,0,0-22.1-10c4.15-3.34,8-6.16,11.66-8.54,2.27.54,12.55,3.11,20.28,7.59a.46.46,0,0,0,.46-.8c-7.1-4.12-16.3-6.64-19.68-7.48q2.24-1.46,4.29-2.67a71.27,71.27,0,0,1,17.52,4.46.47.47,0,0,0,.33-.87A76,76,0,0,0,575.21,349c11.09-6.4,18-8,18-8a.7.7,0,0,0-.34-1.35,53.92,53.92,0,0,0-8.33,3.05,40.77,40.77,0,0,1,4-4.65.46.46,0,1,0-.49-.79c-.83.51-4.22,4.8-5.38,6.28-2.13,1-4.56,2.24-7.24,3.76l4.57-9.09a.46.46,0,0,0-.83-.41L574,348.14c-1.84,1.08-3.8,2.28-5.85,3.63L573.12,341a.46.46,0,0,0-.84-.39l-5.55,12.13c-3.07,2.07-6.35,4.45-9.8,7.18l4.27-11.16a.47.47,0,0,0-.27-.6.46.46,0,0,0-.59.27l-4.84,12.65c-1.58,1.28-3.18,2.62-4.82,4l3.62-10.05a.46.46,0,1,0-.87-.32l-4.19,11.64q-4.56,4-9.38,8.9l2.73-9.82a.46.46,0,0,0-.89-.25l-3.18,11.43c-1.27,1.31-2.56,2.67-3.85,4.07l1.53-7.5a.46.46,0,0,0-.91-.19l-1.83,9q-3.62,4-7.32,8.42l1.43-8.36a.47.47,0,0,0-.92-.15L525,391.88q-3.24,3.94-6.54,8.32l.93-7.43a.46.46,0,0,0-.92-.12l-1.13,9q-2.87,3.85-5.77,8l.05-6.7a.47.47,0,0,0-.46-.47.47.47,0,0,0-.47.46l0,8.06c-1.4,2-2.8,4.13-4.2,6.27l-.72-5.71a.46.46,0,0,0-.92.12l.86,6.8c-1.29,2-2.58,4-3.87,6.13l-.67-3.69a.46.46,0,0,0-.54-.37.45.45,0,0,0-.37.53l.86,4.71q-1.45,2.37-2.89,4.82l-1.53-3a.46.46,0,0,0-.62-.2.46.46,0,0,0-.21.62l1.8,3.56c-.78,1.34-1.57,2.69-2.35,4.07l1.27.57Q497.63,434.29,498.75,432.37Z" fill="#fff" fill-rule="evenodd"/><path d="M499.26,444.5c6.16-3.89,17-9.11,33.44-11.45,27.84-4,52.69-15.38,50.81-30.6-1.81-14.67-41.28-9-90.41,30.77l6.14,11.24Z" fill="#9fb2d9" fill-rule="evenodd"/><path d="M576,404.72a1,1,0,0,0,1-1,1,1,0,0,0-1-.95,67.55,67.55,0,0,0-8.43.71l4.54-3.07a.63.63,0,0,0,.17-.88.64.64,0,0,0-.88-.18L564.63,404c-2.47.41-5.28.95-8.38,1.7l4.77-4.56a.64.64,0,1,0-.88-.92l-6.39,6.11c-3.22.83-6.71,1.88-10.4,3.17l4-4.1a.62.62,0,0,0,0-.9.63.63,0,0,0-.9,0l-5.83,6c-3.86,1.45-7.92,3.17-12.13,5.22l3.38-4.34a.63.63,0,0,0-1-.78l-5,6.45c-3.94,2-8,4.34-12.1,7l1.38-2.95a.64.64,0,0,0-.31-.85.63.63,0,0,0-.84.31l-2.26,4.81q-4.68,3.12-9.43,6.83l1.26-3a.64.64,0,0,0-.34-.84.64.64,0,0,0-.83.34l-2.18,5.17q-2.31,1.88-4.62,3.9l.94,1.72q2.31-2,4.62-3.92c1.57.1,5.34.42,6.93,1.25a.64.64,0,0,0,.59-1.13,20,20,0,0,0-6.08-1.28c1.22-1,2.43-1.91,3.65-2.82a26.92,26.92,0,0,1,7.87,2.44.63.63,0,0,0,.86-.25.62.62,0,0,0-.24-.86,26,26,0,0,0-7.1-2.37c2.5-1.83,5-3.52,7.47-5.1,2.12.87,8.82,3.73,11.46,5.89a.64.64,0,0,0,.81-1c-2.47-2-8.23-4.59-11-5.74,2.64-1.65,5.26-3.17,7.83-4.56,2.12.81,9,3.61,13.56,7.21a.64.64,0,0,0,.79-1c-4.09-3.24-10-5.84-12.87-7,1.27-.66,2.53-1.3,3.78-1.91A61.71,61.71,0,0,1,546,425.57a.64.64,0,0,0,.89-.13.65.65,0,0,0-.14-.89,62.81,62.81,0,0,0-15.62-8,140.12,140.12,0,0,1,13-5.32c2.43,1.51,11.85,7.43,16,11.34a.64.64,0,0,0,.9,0,.63.63,0,0,0,0-.9c-3.81-3.62-12-8.86-15.29-10.95,3.06-1,6-1.88,8.68-2.58,2.18,1.67,10.25,7.84,12.12,9.46a.64.64,0,0,0,.83-1c-1.71-1.47-8.47-6.66-11.38-8.89,3.54-.88,6.72-1.49,9.45-1.93,2,1.71,6.68,5.83,7.79,6.93a.64.64,0,0,0,.9-.9c-1-1-4.79-4.32-7-6.28A69.17,69.17,0,0,1,576,404.72Z" fill="#b4c5e6" fill-rule="evenodd"/><path d="M408,359.65q-.6-8.32-.57-16.16c0-5.31.26-10.42.7-15.36,1.64-18.44,6.12-34.35,12.8-47.93A108.62,108.62,0,0,1,449.49,244a123.68,123.68,0,0,1,36-20.42,162.49,162.49,0,0,1,44.35-9.33c5.15-.37,10.34-.53,15.54-.49s10.53.31,15.74.78h0a2.17,2.17,0,0,1,1.47.77,2.14,2.14,0,0,1,.49,1.56l0,.15c-.21,2-4.9,45.6-26.13,85-21.46,39.82-59.78,75.35-127.31,59.7a2.2,2.2,0,0,1-1.18-.73,2.24,2.24,0,0,1-.48-1.25ZM560.73,217.91a227.83,227.83,0,0,0-27.48,13.43c5.68,1,18.56,3.4,24.34,5.25,1.92-9.25,2.82-16,3.14-18.68Zm-3.56,20.71h0c-6.68-2.18-24.1-5.22-26.69-5.67-7.25,4.2-15.42,9.33-24.09,15.49l45.2,11.89c2.41-8,4.24-15.35,5.61-21.7ZM551,262.28,504.19,250a310.91,310.91,0,0,0-25.1,20.18c9.28,2.82,53.63,16.41,61.14,20.21A232.27,232.27,0,0,0,551,262.28Zm-11.6,30c-7.56-3.87-56.51-18.78-62.05-20.47-6.84,6.2-13.72,13-20.47,20.45l69.66,22.24a.9.9,0,0,1,.24.12c3-4.46,5.74-9.05,8.25-13.7,1.54-2.86,3-5.75,4.37-8.64Zm-13.81,24.08L455.32,293.9c-5.26,5.88-10.43,12.14-15.45,18.82,11.34,3.83,69.49,21.92,69.66,22a.91.91,0,0,1,.41.25,128.23,128.23,0,0,0,15.61-18.64Zm-17.21,20.17c-6.16-1.92-60.57-18.86-69.77-22q-6.45,8.71-12.49,18.34c13.73,6.79,59.91,18.77,60.05,18.81a1,1,0,0,1,.63.47,99.81,99.81,0,0,0,21.58-15.59Zm-23.93,16.8c-7.4-1.95-46.9-12.48-59.42-18.73q-3.84,6.24-7.45,12.89c5.27,2.08,28.9,11.14,44.16,12.7a1,1,0,0,1,.89.75,93.13,93.13,0,0,0,21.82-7.61Zm-26.33,8.47c-15.63-2.44-37-10.71-41.52-12.49q-2.71,5.1-5.28,10.45c17.55,3.93,33.07,4.32,46.8,2Zm-48-4.29q2.39-4.89,4.89-9.58c-2.1-5.85-3.67-16-4.43-21.65-.07.7-.14,1.39-.2,2.1q-.66,7.31-.69,15.16,0,6.75.43,14Zm1.09-36.54a1,1,0,0,1,.89.91c0,.05,1.65,14.92,4.26,23.56Q419.79,339,423.5,333a201.23,201.23,0,0,1-6.82-36.52,138.73,138.73,0,0,0-5.52,24.4Zm6.7-27.83a1,1,0,0,1,.69.9,197.7,197.7,0,0,0,6.42,36.7q5.83-9.26,12.08-17.65c-1.21-3.58-8.24-24.93-9.23-40.8q-2.62,4.27-4.91,8.93a117.48,117.48,0,0,0-5.05,11.92Zm11.47-23.24a1,1,0,0,1,.48.83c.55,14.36,6.74,34.24,8.75,40.35,4.95-6.55,10.05-12.72,15.23-18.51-9.25-19.61-10.65-35.58-10.86-39.56a105.51,105.51,0,0,0-13.6,16.89Zm15.33-18.59a1,1,0,0,1,.3.7s.19,17,10.33,38.9c6.77-7.46,13.67-14.29,20.53-20.52-4.15-9.35-8.16-32.63-8.7-35.81a113.68,113.68,0,0,0-16.21,11.15c-2.15,1.77-4.24,3.63-6.25,5.58ZM469,233.49a1,1,0,0,1,.12.34c0,.07,4.1,24.88,8.35,35.06a310.56,310.56,0,0,1,25.4-20.46c-3-12-2.93-25-2.9-27.08-4.64,1.22-9.2,2.64-13.66,4.29A129.86,129.86,0,0,0,469,233.49Zm33-12.65a1.12,1.12,0,0,1,0,.27,115.18,115.18,0,0,0,2.64,26c8.82-6.29,17.14-11.53,24.52-15.82a74.66,74.66,0,0,1-.29-14.78,167.75,167.75,0,0,0-26.9,4.31Zm29-4.46v.16a72.06,72.06,0,0,0,.15,13.66,242.05,242.05,0,0,1,27.54-13.67c-4.39-.34-8.82-.54-13.25-.58Q538.19,215.89,531,216.38Z" fill="#9fb2d9" fill-rule="evenodd"/><rect x="86.97" y="439.88" width="574.46" height="7.82" rx="3.91" fill="#00000f"/><rect x="65.59" y="439.88" width="15.8" height="7.82" rx="3.91" fill="#00000f"/><rect x="674.3" y="439.88" width="31.45" height="7.82" rx="3.91" fill="#00000f"/><polygon points="186.21 179.52 201.59 220.37 236.26 196.7 246.04 159.27 241.31 150.87 202.16 154.61 189.8 164.51 186.21 179.52" fill-rule="evenodd" fill="url(#a)"/><path d="M194.12,172.49a5.18,5.18,0,1,0-5.17-5.17A5.18,5.18,0,0,0,194.12,172.49Z" fill="#fff" fill-rule="evenodd"/><path d="M145.61,187l29.59-33.72a.54.54,0,0,1,.75,0l1.77,1.55a.54.54,0,0,1,.05.75l-29.59,33.72a.55.55,0,0,1-.76.05l-1.76-1.55a.54.54,0,0,1,0-.75Zm30-32.61-28.88,32.91,1,.84,28.88-32.91Z" fill="#101537" fill-rule="evenodd"/><path d="M175.33,152.37a3,3,0,1,1-2.58,3.33A3,3,0,0,1,175.33,152.37Z" fill="#00000f" fill-rule="evenodd"/><path d="M145.59,187.2l20.81,39.74a.54.54,0,0,0,.72.23l2.07-1.09a.53.53,0,0,0,.23-.72l-20.8-39.74a.53.53,0,0,0-.72-.23l-2.08,1.09a.54.54,0,0,0-.23.72ZM167.1,226l-20.31-38.79,1.13-.59,20.31,38.79Z" fill="#101537" fill-rule="evenodd"/><path d="M166.3,227.9a3,3,0,1,0-1.72-3.85A3,3,0,0,0,166.3,227.9Z" fill="#00000f" fill-rule="evenodd"/><path d="M147.29,184.32a3,3,0,1,1-2.58,3.34A3,3,0,0,1,147.29,184.32Z" fill="#00000f" fill-rule="evenodd"/><path d="M165.56,236.2h38.25a5.56,5.56,0,0,0,5.55-5.54h0a5.57,5.57,0,0,0-5.55-5.55H165.56a5.57,5.57,0,0,0-5.55,5.55h0A5.56,5.56,0,0,0,165.56,236.2Z" fill="#b32720" fill-rule="evenodd"/><path d="M140.12,236.2h38.26a5.55,5.55,0,0,0,5.54-5.54h0a5.56,5.56,0,0,0-5.54-5.55H140.12a5.56,5.56,0,0,0-5.54,5.55h0A5.55,5.55,0,0,0,140.12,236.2Z" fill="#d64c47" fill-rule="evenodd"/><path d="M202,155.11l-15.83,24.41a.77.77,0,0,1-.74.36.78.78,0,0,1-.65-.49l-9.15-23.28a.78.78,0,0,1,.69-1.07l25-1.14a.77.77,0,0,1,.71.39A.78.78,0,0,1,202,155.11Z" fill="#d64c47" fill-rule="evenodd"/><polygon points="184.4 178.3 183.06 174.9 196.53 154.12 200.19 153.96 184.4 178.3" fill="#fff" fill-rule="evenodd"/><path d="M178.24,152.39l6.52,4.22a3.91,3.91,0,0,1,1.15,5.38h0a3.91,3.91,0,0,1-5.38,1.15L174,158.91a3.91,3.91,0,0,1-1.15-5.38h0A3.9,3.9,0,0,1,178.24,152.39Z" fill="#d64c47" fill-rule="evenodd"/><path d="M175.19,155a1.24,1.24,0,0,1-1.35,2.08,1.24,1.24,0,1,1,1.35-2.08Z" fill="#00000f" fill-rule="evenodd"/><path d="M213.58,180.92a1.08,1.08,0,1,0-2.15,0v2.54h-2.54a1.08,1.08,0,1,0,0,2.16h2.54v2.54a1.08,1.08,0,1,0,2.15,0v-2.54h2.54a1.08,1.08,0,0,0,0-2.16h-2.54Z" fill="#fff" fill-rule="evenodd"/><path d="M198.47,176.27a1.08,1.08,0,0,0-2.16,0v2.53h-2.54a1.08,1.08,0,0,0,0,2.16h2.54v2.54a1.08,1.08,0,0,0,2.16,0V181H201a1.08,1.08,0,1,0,0-2.16h-2.54Z" fill="#fff" fill-rule="evenodd"/><path d="M234.52,159.31a1.08,1.08,0,1,0-2.15,0v2.54h-2.54a1.08,1.08,0,0,0,0,2.16h2.54v2.53a1.08,1.08,0,1,0,2.15,0V164h2.54a1.08,1.08,0,0,0,0-2.16h-2.54Z" fill="#fff" fill-rule="evenodd"/><path d="M214.06,163.93a.48.48,0,0,0-.95,0v1.12H212a.47.47,0,0,0-.48.47.48.48,0,0,0,.48.48h1.11v1.11a.48.48,0,1,0,.95,0V166h1.11a.48.48,0,0,0,.48-.48.47.47,0,0,0-.48-.47h-1.11Z" fill="#fff" fill-rule="evenodd"/><path d="M203.12,189.08a.48.48,0,0,0-1,0v1.12h-1.11a.47.47,0,1,0,0,.94h1.11v1.12a.48.48,0,0,0,1,0v-1.12h1.12a.47.47,0,1,0,0-.94h-1.12Z" fill="#fff" fill-rule="evenodd"/><path d="M225.73,176.86a.48.48,0,0,0-.95,0V178h-1.11a.49.49,0,0,0-.48.48.48.48,0,0,0,.48.47h1.11V180a.48.48,0,0,0,.95,0v-1.12h1.11a.47.47,0,0,0,.48-.47.48.48,0,0,0-.48-.48h-1.11Z" fill="#fff" fill-rule="evenodd"/><path d="M202.36,166.62a.48.48,0,0,0-.48-.47.47.47,0,0,0-.47.47v1.12h-1.12a.47.47,0,0,0-.47.47.48.48,0,0,0,.47.48h1.12v1.11a.48.48,0,0,0,.47.48.49.49,0,0,0,.48-.48v-1.11h1.11a.48.48,0,0,0,.47-.48.47.47,0,0,0-.47-.47h-1.11Z" fill="#fff" fill-rule="evenodd"/><path d="M223.59,155.32a.47.47,0,0,0-.47-.47.48.48,0,0,0-.48.47v1.11h-1.11a.49.49,0,0,0-.48.48.48.48,0,0,0,.48.47h1.11v1.12a.48.48,0,0,0,.48.47.47.47,0,0,0,.47-.47v-1.12h1.12a.47.47,0,0,0,.47-.47.48.48,0,0,0-.47-.48h-1.12Z" fill="#fff" fill-rule="evenodd"/><path d="M243.14,179.76a.47.47,0,1,0-.94,0v1.12h-1.12a.47.47,0,0,0,0,.94h1.12v1.12a.47.47,0,1,0,.94,0v-1.12h1.12a.47.47,0,1,0,0-.94h-1.12Z" fill="#fff" fill-rule="evenodd"/><path d="M216.72,207.26a.48.48,0,0,0-.48-.47.47.47,0,0,0-.47.47v1.11h-1.12a.48.48,0,0,0-.47.48.47.47,0,0,0,.47.47h1.12v1.12a.47.47,0,0,0,.47.47.48.48,0,0,0,.48-.47v-1.12h1.11a.47.47,0,0,0,.47-.47.48.48,0,0,0-.47-.48h-1.11Z" fill="#fff" fill-rule="evenodd"/><path d="M236.26,195.58a.47.47,0,0,0-.94,0v1.12H234.2a.47.47,0,1,0,0,.94h1.12v1.12a.47.47,0,1,0,.94,0v-1.12h1.12a.47.47,0,1,0,0-.94h-1.12Z" fill="#fff" fill-rule="evenodd"/><path d="M490.33,248.21a5.72,5.72,0,0,0-11.41.76c.83,12.1,2.15,25.55,4.1,40.47H379.24c2.05-14.84,3.69-28.21,5-40.25a5.71,5.71,0,1,0-11.36-1.2c-2.55,23.77-6.45,52.75-12.26,88-5,30-11.27,64.43-19.31,104h11.65c7.87-38.83,14.07-72.67,18.93-102.12q3.25-19.71,5.74-36.88h107q2.49,17.25,6.09,37c5.41,29.47,12.84,63.28,22.86,102h11.79C515,400.26,507.4,365.79,501.91,335.84c-2.7-14.76-4.9-28.41-6.65-41a7.35,7.35,0,0,0-.11-.82C492.8,276.9,491.25,261.71,490.33,248.21Z" fill="#3b405f" fill-rule="evenodd"/><path d="M253.93,304a3,3,0,1,0-6.05,0V439.9h6.05V399.68h46.4V439.9h6.06V304a3,3,0,0,0-6.06,0v78.59h-46.4V304Zm46.4,89.67h-46.4v-7.29h46.4Z" fill="#00000f" fill-rule="evenodd"/><path d="M201.48,304a3,3,0,0,0-6.06,0V439.9h6.06V399.68h46.4V439.9h6.05V304a3,3,0,1,0-6.05,0v78.59h-46.4V304Zm46.4,89.67h-46.4v-7.29h46.4Z" fill="#674834" fill-rule="evenodd"/><path d="M312,304H193.59a3.81,3.81,0,0,0-3.81,3.8h0a3.82,3.82,0,0,0,3.81,3.81H312a3.82,3.82,0,0,0,3.81-3.81h0A3.81,3.81,0,0,0,312,304Z" fill="#00000f" fill-rule="evenodd"/><path d="M316.35,300.15H188.54a3.82,3.82,0,0,0-3.8,3.81h0a3.81,3.81,0,0,0,3.8,3.8H316.35a3.81,3.81,0,0,0,3.81-3.8h0A3.82,3.82,0,0,0,316.35,300.15Z" fill="#b56b41" fill-rule="evenodd"/><path d="M238.9,300.15H188.54a3.82,3.82,0,0,0-3.8,3.81h0a3.81,3.81,0,0,0,3.8,3.8H238.9a3.81,3.81,0,0,0,3.8-3.8h0A3.82,3.82,0,0,0,238.9,300.15Z" fill="#d58750" fill-rule="evenodd"/><path d="M312.88,201.44c11,2.7,33.13,7.13,40.17,16.17,4.6,5.9,5.24,13-2.36,13H312Z" fill="#d64c47" fill-rule="evenodd"/><path d="M234.93,250l-14.85,13s-8.56-23.64-.1-44.32,40.63-22.24,53.89-23.49,30.19,35.46,30.19,35.46Z" fill="#d64c47" fill-rule="evenodd"/><path d="M289.38,266.61s28.22,6.41,31.78,7.25,13.16,10.43,14.86,19.67S353.34,420,353.34,420s-4,7-4.56,7.11-8.17-3.5-8.17-3.5-27.19-99.41-30.33-108.2-2.32-15.3-11.93-15.3H269.47L262,274.72l3-2.93c-3.27.16-5.82.18-6.25-.08-1.36-.84-22.81-8.69-22.81-8.69s15.38-4.6,16.74-5.13,23.49-2.35,23.49-2.35.05,6.07,1.15,7.38a7.49,7.49,0,0,0,3.45,1.84h0Z" fill="#00000f" fill-rule="evenodd"/><path d="M221.8,236.86c-.23,8-.49,16.38-1.76,20.75a18.47,18.47,0,0,1,0,5.4l-.2.59c.17.64.32,1,.32,1,3.54,2.7,7.3,2.81,11.62,4.44l0-.58-.17-.77,12.59,6.09c4.26-.44,31.35-2.18,38.12-8.72-.6-6.38,26.48-24.26,33.91-26Z" fill="#d64c47" fill-rule="evenodd"/><path d="M350.13,422a3.48,3.48,0,0,1,4.13-1.89c2.93.81,20.3,10.37,23,11.55s5.57,5.68,3.43,8.26h-41.3c-2.44-1.46-4.79-6.53-2.27-15.34S339,425,350.13,422Z" fill="#ea5756" fill-rule="evenodd"/><path d="M350.13,422a3.48,3.48,0,0,1,4.13-1.89c1.83.51,9.25,4.4,15.24,7.56-1.75,1.31-5.49,2.46-6.34,2.29C362.09,429.72,350.13,422,350.13,422Z" fill="#db4141" fill-rule="evenodd"/><rect x="335.52" y="435.21" width="47.07" height="4.67" rx="1.21" fill="#fffaf9"/><path d="M228.62,300.1c-16.22,0-16.86-28.33-8.54-37.09A18.27,18.27,0,0,0,231,266.28c11-.12,36.82-6.29,44.72,4.23s10.77,28.19,6.2,53.89S266,424,266,424l-13-1.12s1.92-104.2,2.13-109.75-2.72-12.94-8.68-12.94S228.62,300.1,228.62,300.1Z" fill="#131936" fill-rule="evenodd"/><path d="M263.35,422.77s-4.92-6.12-10.93-1.25a8.91,8.91,0,0,0-4.51,4.42c-1.23,3.1-3.56,4.5-4,7.89s.55,6.05,4.85,6.05h7c3.07,0,7.65.52,9.22-3.61s0-7.89.55-10S263.35,422.77,263.35,422.77Z" fill="#ea5756" fill-rule="evenodd"/><path d="M263.35,422.77s-4.92-6.12-10.93-1.25a9.6,9.6,0,0,0-1.45.8c-.35,2.68-.63,5.54-.37,6.27.52,1.46,8.29,1.15,9.38.63.82-.39,2.68-4.35,3.57-6.34Z" fill="#db4141" fill-rule="evenodd"/><rect x="243.19" y="435.21" width="22.8" height="4.67" rx="1.21" fill="#fffaf9"/><path d="M298.41,268.66c-.42.46-.84,1-1.25,1.49a22.32,22.32,0,0,0-4.59,7.79.39.39,0,0,0,.75.24c.13-.4.28-.79.43-1.17a.48.48,0,0,0,.17.1.39.39,0,0,0,.5-.25,21.14,21.14,0,0,1,3.35-6.22c.58-.65,1.16-1.22,1.71-1.73l-1.07-.25Zm2.32.53,1.36.31a25.9,25.9,0,0,0-2,2.18,21.08,21.08,0,0,0-3.35,6.21.38.38,0,0,1-.39.27c-.05.13-.1.26-.14.4a.41.41,0,0,1-.5.25.45.45,0,0,1-.2-.16l0,.07a.4.4,0,1,1-.75-.25,23,23,0,0,1,6-9.28Zm1.71.39,1.42.32a23.31,23.31,0,0,0-5.92,7.63c-.17.41-.33.83-.47,1.26a.41.41,0,0,1-.15.21q-.15.36-.27.75a.41.41,0,0,1-.5.25.41.41,0,0,1-.25-.5,21.26,21.26,0,0,1,.92-2.28,23.1,23.1,0,0,1,5.22-7.64Zm1.79.41,1,.24a24.47,24.47,0,0,0-3.29,3.49,20.62,20.62,0,0,0-3,5.76.41.41,0,0,1-.27.26,1.46,1.46,0,0,0-.07.19.39.39,0,0,1-.5.25.38.38,0,0,1-.25-.49,21.6,21.6,0,0,1,3.47-6.43,24.43,24.43,0,0,1,2.87-3.27Zm2.68.61A23.42,23.42,0,0,0,299.67,281a.39.39,0,0,0,.74.24,22.65,22.65,0,0,1,7-10,25.57,25.57,0,0,0-2.93,3.17,22,22,0,0,0-3.65,6.67.41.41,0,0,0,.25.5h.07l-.09.28h0a.4.4,0,0,0,.75.25c0-.13.08-.25.13-.37h0v0c0-.11.08-.22.12-.33v0c.09-.24.18-.47.28-.7h0l.15-.34h0l.15-.32v0h0l.16-.32h0c0-.11.11-.21.16-.31l0,0,.14-.28,0-.06a2,2,0,0,1,.14-.25l0-.07.14-.24.05-.08a1.59,1.59,0,0,1,.13-.22l.05-.09.13-.21.07-.12.11-.17.08-.12.12-.18.07-.11.12-.17.09-.13.09-.13v0a21.45,21.45,0,0,0-2.19,4.62.38.38,0,0,0,.25.49h0l-.24.69a.39.39,0,0,0,.75.24l.06-.19a.39.39,0,0,0,.28-.25q.15-.48.33-.93a.39.39,0,0,0,.26.47.4.4,0,0,0,.5-.25,22.55,22.55,0,0,1,6.65-9.72l.17-.12-1.17-.27-.42.35.42-.35-3.38-.77Zm4.63,1a23.38,23.38,0,0,0-6.9,10.06.41.41,0,0,0,.25.5.39.39,0,0,0,.5-.25l.09-.27a.39.39,0,0,0,.25.22.38.38,0,0,0,.49-.25,22.55,22.55,0,0,1,6.65-9.7l-1.33-.31Zm1.67.38,3.35.77a22.93,22.93,0,0,0-7.63,10.52.39.39,0,0,1-.49.25.36.36,0,0,1-.21-.17.42.42,0,0,1-.4.1.4.4,0,0,1-.25-.5,22.61,22.61,0,0,1,5.18-8.43,22,22,0,0,0-5.41,8.56.4.4,0,0,1-.5.25.39.39,0,0,1-.25-.5l0-.1a.37.37,0,0,1-.31,0,.39.39,0,0,1-.25-.5A23.56,23.56,0,0,1,313.21,272Zm3.57.82,1,.22a23.17,23.17,0,0,0-8,10.82.39.39,0,0,1-.5.25.41.41,0,0,1-.25-.5A23.7,23.7,0,0,1,316.78,272.85Z" fill="#3b405f" fill-rule="evenodd"/><path d="M277.26,352a21.14,21.14,0,0,0-3.53-.58,22.36,22.36,0,0,0-9.5.5.58.58,0,0,0-.41.54.32.32,0,0,0,.43.31c.45-.13.9-.23,1.34-.32a.54.54,0,0,0,0,.22.32.32,0,0,0,.43.31,21.57,21.57,0,0,1,7.47-.69,20.91,20.91,0,0,1,3.63.93l.19-1.22Zm-.38,2.41-.22,1.36a20.71,20.71,0,0,0-3.46-.73,21.59,21.59,0,0,0-7.47.7.32.32,0,0,1-.41-.21l-.45.12a.33.33,0,0,1-.43-.31.62.62,0,0,1,.09-.29l-.08,0a.31.31,0,0,1-.42-.31.59.59,0,0,1,.41-.54,22.25,22.25,0,0,1,12.44.19Zm-.27,1.68a22.19,22.19,0,0,0-10-.28,24.71,24.71,0,0,0-2.63.55.57.57,0,0,0-.41.54.32.32,0,0,0,.43.31c.28-.08.57-.15.85-.21a.38.38,0,0,0,.26,0c.48-.13,1-.24,1.44-.33a21.27,21.27,0,0,1,9.84.84l.23-1.43Zm-.29,1.8-.17,1a20.76,20.76,0,0,0-4.32-.82,21.83,21.83,0,0,0-6.89.74.35.35,0,0,1-.36-.1,1.8,1.8,0,0,0-.22.06.32.32,0,0,1-.43-.31.58.58,0,0,1,.41-.54,22.15,22.15,0,0,1,7.73-.72,22.64,22.64,0,0,1,4.25.65Zm-.42,2.63-.15.92a21.34,21.34,0,0,0-12.05-.19.33.33,0,0,1-.43-.32.6.6,0,0,1,.42-.54,22.23,22.23,0,0,1,12.21.13Zm-.15.95a23.71,23.71,0,0,0-3.67-.62,22.41,22.41,0,0,0-8,.7.58.58,0,0,0-.42.54s0,.05,0,.08h0l-.31.08h0a.58.58,0,0,0-.42.54.33.33,0,0,0,.43.31l.41-.11h0l.37-.09h0l.81-.17h0l.39-.07h0l.39-.06h0l.37-.05h0l.37-.05h0l.33,0H267l.3,0h.08l.3,0h2.16a22.5,22.5,0,0,0-5.44.78.61.61,0,0,0-.42.54h0l-.77.19a.59.59,0,0,0-.42.54.33.33,0,0,0,.43.31l.22-.06a.32.32,0,0,0,.35.1c.36-.1.71-.18,1.06-.26a.59.59,0,0,0-.38.53.32.32,0,0,0,.43.31,21.47,21.47,0,0,1,10.26-.28l.57-3.6Zm-.59,3.71-.22,1.36a21.68,21.68,0,0,0-9.65.41.33.33,0,0,1-.43-.31.56.56,0,0,1,.15-.37l-.31.08a.32.32,0,0,1-.43-.31.59.59,0,0,1,.41-.54,22.33,22.33,0,0,1,10.48-.32Zm-.27,1.67a22.19,22.19,0,0,0-10.31.35.57.57,0,0,0-.41.54.3.3,0,0,0,.14.27l-.12,0a.59.59,0,0,0-.41.54.31.31,0,0,0,.42.31,21.51,21.51,0,0,1,10.41-.24l.28-1.8Zm-.28,1.8-.23,1.47a21.4,21.4,0,0,0-9.8.37.32.32,0,0,1-.43-.31.52.52,0,0,1,.09-.29.32.32,0,0,1-.23-.32.58.58,0,0,1,.41-.54,22.41,22.41,0,0,1,10.19-.38Zm-.27,1.71a22.21,22.21,0,0,0-10.07.4.57.57,0,0,0-.41.54.32.32,0,0,0,.43.31,21.43,21.43,0,0,1,9.91-.35Z" fill="#3b405f" fill-rule="evenodd"/><path d="M337.17,301a21.86,21.86,0,0,0-5.5-.16,22.48,22.48,0,0,0-9.25,2.19.6.6,0,0,0-.31.61.32.32,0,0,0,.48.23c.42-.2.84-.39,1.26-.56a.6.6,0,0,0,0,.23.32.32,0,0,0,.48.23,21.55,21.55,0,0,1,7.23-2,20.37,20.37,0,0,1,5.83.74l-.21-1.49Zm.37,2.63.2,1.38a20.9,20.9,0,0,0-5.94-.51,21.73,21.73,0,0,0-7.22,2,.32.32,0,0,1-.44-.12l-.42.19a.32.32,0,0,1-.48-.23.62.62,0,0,1,0-.3l-.07,0a.32.32,0,0,1-.48-.23.58.58,0,0,1,.32-.6,22,22,0,0,1,14.5-1.64Zm.23,1.63a22.06,22.06,0,0,0-12.33,1.18,24,24,0,0,0-2.48,1,.57.57,0,0,0-.31.61.31.31,0,0,0,.47.22l.8-.36a.35.35,0,0,0,.26,0c.46-.21.91-.41,1.36-.59A20.92,20.92,0,0,1,338,307l-.24-1.68Zm.27,1.85a21.87,21.87,0,0,0-7-.25,22.21,22.21,0,0,0-7.47,2.1.56.56,0,0,0-.31.6.32.32,0,0,0,.47.23l.21-.1a.33.33,0,0,0,.37,0A21.64,21.64,0,0,1,331,307.8a20.84,20.84,0,0,1,7.21.54l-.17-1.2Zm.4,2.86.27,2c-.32-.08-.7-.18-1.15-.27h.06l.06,0h.12l.06,0,.11,0h0l.1,0h.64l.19,1.37a20.13,20.13,0,0,0-2.08-.39,18.66,18.66,0,0,1,2.08.41l.35,2.51a21.38,21.38,0,0,0-13.11,1.77.32.32,0,0,1-.48-.23.52.52,0,0,1,.08-.38l-.29.13A.32.32,0,0,1,325,317a.58.58,0,0,1,.31-.6,22.16,22.16,0,0,1,13.07-1.93l-.84-.21a21.43,21.43,0,0,0-12,2,.32.32,0,0,1-.48-.23.6.6,0,0,1,.28-.59l-1,.44a.33.33,0,0,1-.37,0l-.2.1a.32.32,0,0,1-.48-.23.58.58,0,0,1,.31-.61l.73-.33h0a.56.56,0,0,1,.31-.6,22.5,22.5,0,0,1,5.21-1.75h0l-.16,0-.17,0-.2,0-.14,0-.22,0-.14,0-.22.05-.14,0-.24.06-.11,0-.26.06-.1,0-.29.07-.07,0-.29.08-.09,0-.32.1h0l-.36.11h0l-.35.12h0l-.37.13h0l-.37.14h0l-.76.31,0,0-.36.15h0l-.39.18A.32.32,0,0,1,323,314a.56.56,0,0,1,.31-.6h0l.29-.14h0a.19.19,0,0,1,0-.07.58.58,0,0,1,.31-.61,22.66,22.66,0,0,1,7.78-2.12,22,22,0,0,1,4.31,0,21.4,21.4,0,0,0-12.49,1.87.31.31,0,0,1-.47-.22.58.58,0,0,1,.31-.61,22,22,0,0,1,15-1.5Zm.87,6.25A22.09,22.09,0,0,0,325.49,318a.59.59,0,0,0-.31.6.36.36,0,0,0,.19.25l-.11.05a.56.56,0,0,0-.31.6.32.32,0,0,0,.48.23,21.52,21.52,0,0,1,10.36-2.09,22.32,22.32,0,0,0-10.13,2.19.59.59,0,0,0-.31.6.33.33,0,0,0,.29.27.56.56,0,0,0,0,.31.32.32,0,0,0,.48.23,21.28,21.28,0,0,1,13.7-1.65l-.47-3.38Zm.5,3.59.13,1a21.27,21.27,0,0,0-13.95,1.6.32.32,0,0,1-.48-.23.61.61,0,0,1,.32-.61A22.12,22.12,0,0,1,339.81,319.84Z" fill="#3b405f" fill-rule="evenodd"/><path d="M252.35,248.21a5.72,5.72,0,0,0-11.41.76c.83,12.1,2.15,25.55,4.09,40.47H141.26c2.05-14.84,3.69-28.21,5-40.25a5.71,5.71,0,0,0-11.36-1.2c-2.55,23.77-6.45,52.75-12.26,88-5,30-11.27,64.43-19.31,104H115c7.87-38.83,14.07-72.67,18.93-102.12q3.26-19.71,5.74-36.88h107q2.49,17.25,6.09,37c5.41,29.47,12.84,63.28,22.86,102h11.79c-10.32-39.64-17.93-74.11-23.42-104.06-2.71-14.76-4.9-28.41-6.65-41a7.35,7.35,0,0,0-.11-.82C254.82,276.9,253.27,261.71,252.35,248.21Z" fill="#3b405f" fill-rule="evenodd"/><rect x="231.57" y="234.9" width="271.3" height="23.42" rx="5.51" fill="#b56b41"/><path d="M497.34,234.9H179.61a5.55,5.55,0,0,0-5.53,5.52v7.34H502.87v-7.34A5.55,5.55,0,0,0,497.34,234.9Z" fill="#00000f" fill-rule="evenodd"/><path d="M502.84,230.66H231.6a6,6,0,0,0-6,6h0a6,6,0,0,0,6,6H502.84a6,6,0,0,0,6-6h0A6,6,0,0,0,502.84,230.66Z" fill="#b56b41" fill-rule="evenodd"/><rect x="129.06" y="234.9" width="130.4" height="23.42" rx="5.51" fill="#d58750"/><path d="M251.31,234.9H137.21c-4.48,0-8.15,2.49-8.15,5.52v7.34h130.4v-7.34C259.46,237.39,255.79,234.9,251.31,234.9Z" fill="#3b405f" fill-rule="evenodd"/><path d="M259.46,230.66H125.8a6,6,0,0,0-6,6h0a6,6,0,0,0,6,6H259.46a6,6,0,0,0,6-6h0A6,6,0,0,0,259.46,230.66Z" fill="#d58750" fill-rule="evenodd"/><path d="M323.53,230.66s-5.79-6.58-4.38-14.34,1.56-22.71-6.63-26.94-18.18-3.65-22.57,2.4c0,0-2.32-3.32-4.93-3.18s-.43,4.31.21,4.8c-26.78-8.32-2.89,31.76-21.87,37.26Z" fill="#050a25" fill-rule="evenodd"/><path d="M323.53,230.66s-5.79-6.58-4.38-14.34c.19-1,.36-2.22.49-3.49-8.86,3.17-29.64,9.16-39.1-.38a31.3,31.3,0,0,1-8.45-15.12c-2.47,8.23,2.52,24.28-4.45,30.94,2.22.61,4.74,1.36,7.55,2.39Z" fill="#00000f" fill-rule="evenodd"/><path d="M352.1,230.66c5.4-4.16,2.25-18.27-10.84-14.43-9.3,2.73-25.07,8.25-27,8.66-2.66.57-8.62,0-10.13,0a5.77,5.77,0,0,0-5.36,5.77H352.1Z" fill="#f5ac83" fill-rule="evenodd"/><path d="M225.49,230.66a6.89,6.89,0,0,1-3.51-6.78c.42-4.87,6.25-9.7,10.66-10.18s52.21,10.21,56.69,10.81,14.53,0,17.08,0,9,1.62,9,6.15H225.49Z" fill="#f5ac83" fill-rule="evenodd"/><path d="M358.62,192.33s-.72-2.58-2.89-2.69-3,2.58-2.36,2.91S358.62,192.33,358.62,192.33Z" fill="#f2d8cd" fill-rule="evenodd"/><path d="M356.74,196.92l.59-.12h0l2-.41c-2.4,6.59-9.12,5.64-6.48.56l3.32-.68v.34a.34.34,0,0,0,.45.33Z" fill="#f2d8cd" fill-rule="evenodd"/><path d="M460.11,133.94h-94.2a6.11,6.11,0,0,0-5.68,4.7L347,202.42a3.72,3.72,0,0,0,3.73,4.7h94.19a6.11,6.11,0,0,0,5.68-4.7l13.28-63.78A3.71,3.71,0,0,0,460.11,133.94Z" fill="#fff" fill-rule="evenodd"/><path d="M460.11,133.94H369a6.11,6.11,0,0,0-5.68,4.7L350,202.42a3.72,3.72,0,0,0,3.73,4.7h91.1a6.11,6.11,0,0,0,5.68-4.7l13.28-63.78A3.71,3.71,0,0,0,460.11,133.94Z" fill="#dcdcee" fill-rule="evenodd"/><path d="M385.09,207.12h23.08a7.9,7.9,0,0,0,.66-1.7c0-.91-5.31-16.79-13-19.28l-4.49-.11Z" fill="#b5b6d3" fill-rule="evenodd"/><path d="M451.4,178.37H359.92a2.37,2.37,0,0,0-2.2,1.82h0a1.43,1.43,0,0,0,1.44,1.82h91.48a2.36,2.36,0,0,0,2.2-1.82h0A1.44,1.44,0,0,0,451.4,178.37Z" fill="#d0d0e6" fill-rule="evenodd"/><path d="M449.21,183.92H359.79a3.71,3.71,0,0,0-3.44,2.85l-3.1,14.89a2.25,2.25,0,0,0,2.26,2.85h89.42a3.7,3.7,0,0,0,3.44-2.85l3.1-14.89A2.25,2.25,0,0,0,449.21,183.92Z" fill="#d0d0e6" fill-rule="evenodd"/><path d="M385.87,204.51H408.6c-1.07-3.59-6-16.18-12.76-18.37l-4.49-.11Z" fill="#b5b6d3" fill-rule="evenodd"/><path d="M448.49,148.77H433a2.27,2.27,0,0,0-2.11,1.74L426.18,173a1.38,1.38,0,0,0,1.38,1.75h15.53a2.27,2.27,0,0,0,2.1-1.75l4.68-22.49A1.37,1.37,0,0,0,448.49,148.77Z" fill="#b5b6d3" fill-rule="evenodd"/><path d="M450.55,148.77H435a2.27,2.27,0,0,0-2.11,1.74L428.24,173a1.38,1.38,0,0,0,1.38,1.75h15.52a2.28,2.28,0,0,0,2.11-1.75l4.68-22.49A1.37,1.37,0,0,0,450.55,148.77Z" fill="#d0d0e6" fill-rule="evenodd"/><path d="M446.61,161.76h0a1.21,1.21,0,0,0-1.13.93l-1.62,7.8a.73.73,0,0,0,.73.93h0a1.2,1.2,0,0,0,1.12-.93l1.63-7.8A.74.74,0,0,0,446.61,161.76Z" fill="#b5b6d3" fill-rule="evenodd"/><path d="M442.22,161.76h0a1.2,1.2,0,0,0-1.12.93l-1.63,7.8a.74.74,0,0,0,.74.93h0a1.21,1.21,0,0,0,1.12-.93l1.63-7.8A.74.74,0,0,0,442.22,161.76Z" fill="#b5b6d3" fill-rule="evenodd"/><path d="M437.84,161.76h0a1.22,1.22,0,0,0-1.13.93l-1.62,7.8a.73.73,0,0,0,.73.93h0a1.21,1.21,0,0,0,1.13-.93l1.62-7.8A.73.73,0,0,0,437.84,161.76Z" fill="#b5b6d3" fill-rule="evenodd"/><path d="M433.45,161.76h0a1.21,1.21,0,0,0-1.12.93l-1.62,7.8a.73.73,0,0,0,.73.93h0a1.2,1.2,0,0,0,1.12-.93l1.63-7.8A.74.74,0,0,0,433.45,161.76Z" fill="#b5b6d3" fill-rule="evenodd"/><path d="M459.48,139.56H368a2.36,2.36,0,0,0-2.2,1.82h0a1.44,1.44,0,0,0,1.44,1.82h91.48a2.37,2.37,0,0,0,2.2-1.82h0A1.44,1.44,0,0,0,459.48,139.56Z" fill="#d0d0e6" fill-rule="evenodd"/><path d="M448.36,185.58H360a.93.93,0,0,0-.86.71h0a.56.56,0,0,0,.56.71h88.4a.93.93,0,0,0,.86-.71h0a.56.56,0,0,0-.56-.71Zm-3.18,15.24H356.79a.91.91,0,0,0-.86.72h0a.56.56,0,0,0,.56.71h88.4a.93.93,0,0,0,.86-.71h0a.57.57,0,0,0-.57-.72Zm.64-3h-88.4a.92.92,0,0,0-.86.72h0a.56.56,0,0,0,.56.71h88.4a.93.93,0,0,0,.86-.71h0a.57.57,0,0,0-.56-.72Zm.63-3.05H358.06a.94.94,0,0,0-.87.72h0a.57.57,0,0,0,.57.71h88.4a.93.93,0,0,0,.86-.71h0a.57.57,0,0,0-.57-.72Zm.64-3h-88.4a.93.93,0,0,0-.86.71h0a.56.56,0,0,0,.56.71h88.4a.93.93,0,0,0,.86-.71h0a.56.56,0,0,0-.56-.71Zm.63-3.05H359.33a.94.94,0,0,0-.87.71h0a.57.57,0,0,0,.57.71h88.4a.94.94,0,0,0,.86-.71h0A.56.56,0,0,0,447.72,188.63Z" fill="#b5b6d3" fill-rule="evenodd"/><path d="M391.06,187h6.62a8.28,8.28,0,0,0-1.84-.86l-4.49-.11-.29,1Zm-.48,1.63-.42,1.42h10.93a18.2,18.2,0,0,0-1.34-1.42Zm-.91,3.05-.42,1.42h14.08c-.31-.49-.63-1-1-1.42Zm-.9,3-.42,1.43H405.1c-.25-.47-.51-1-.78-1.43Zm-.91,3.05-.42,1.43h19.14l-.66-1.43Zm-.9,3-.42,1.43h21.29c-.17-.45-.35-.92-.56-1.43Z" fill="#9295bc" fill-rule="evenodd"/><path d="M371.05,160.17h-1.61a1.38,1.38,0,0,0-1.28,1.06l-1,4.66a.83.83,0,0,0,.84,1.05h1.61a1.38,1.38,0,0,0,1.28-1.05l1-4.66A.84.84,0,0,0,371.05,160.17Z" fill="#b5b6d3" fill-rule="evenodd"/><path d="M373.83,150.17h-3a2.57,2.57,0,0,0-2.39,2l-1.82,8.71a1.57,1.57,0,0,0,1.57,2h3a2.56,2.56,0,0,0,2.39-2l1.82-8.71A1.57,1.57,0,0,0,373.83,150.17Z" fill="#d0d0e6" fill-rule="evenodd"/><path d="M424.61,147.08H384.53a2,2,0,0,0-1.82,1.51l-5,24.07a1.2,1.2,0,0,0,1.19,1.51H419a2,2,0,0,0,1.82-1.51l5-24.07A1.19,1.19,0,0,0,424.61,147.08Z" fill="#d0d0e6" fill-rule="evenodd"/><path d="M421.75,150.57H400.2a1,1,0,0,0-1,.79h0a.63.63,0,0,0,.63.79h21.55a1,1,0,0,0,.95-.79h0A.62.62,0,0,0,421.75,150.57Z" fill="#fff" fill-rule="evenodd"/><path d="M420.92,154.53h-34a1,1,0,0,0-.95.79h0a.62.62,0,0,0,.62.79h34a1,1,0,0,0,1-.79h0A.62.62,0,0,0,420.92,154.53Z" fill="#b5b6d3" fill-rule="evenodd"/><path d="M420.08,158.57h-34a1,1,0,0,0-1,.79h0a.63.63,0,0,0,.63.79h34a1,1,0,0,0,1-.79h0A.63.63,0,0,0,420.08,158.57Z" fill="#b5b6d3" fill-rule="evenodd"/><path d="M419.24,162.61h-34a1,1,0,0,0-1,.79h0a.63.63,0,0,0,.63.79h34a1,1,0,0,0,1-.79h0A.63.63,0,0,0,419.24,162.61Z" fill="#b5b6d3" fill-rule="evenodd"/><path d="M418.4,166.65h-34a1,1,0,0,0-1,.79h0a.63.63,0,0,0,.63.79h34a1,1,0,0,0,.95-.79h0A.61.61,0,0,0,418.4,166.65Z" fill="#b5b6d3" fill-rule="evenodd"/><path d="M417.56,170.68h-34a1,1,0,0,0-1,.8h0a.63.63,0,0,0,.63.79h34a1,1,0,0,0,.95-.79h0A.62.62,0,0,0,417.56,170.68Z" fill="#b5b6d3" fill-rule="evenodd"/><path d="M387.77,150.57h8.45a.62.62,0,0,1,.63.79h0a1,1,0,0,1-1,.79h-8.45a.63.63,0,0,1-.63-.79h0A1,1,0,0,1,387.77,150.57Z" fill="#b5b6d3" fill-rule="evenodd"/><path d="M394.71,186.62c-.74,0-1.92.19-1.92-.56a1.35,1.35,0,0,1,1.35-1.34h26.73a5.27,5.27,0,0,1,5.55,5.33c.12,1.73.84,7.14,1.67,13,.8,5.68,1.74,12.07,2.26,15.63a20.09,20.09,0,0,1,.24,3,10.9,10.9,0,0,1-1.32,5.61,6.85,6.85,0,0,1-5.12,3.29,11,11,0,0,1-1.55.11H394a1.35,1.35,0,0,1-1.34-1.35c0-.74,1.23-.44,2-.44l4.82-.91a7,7,0,0,0,1.16-.08,4.2,4.2,0,0,0,3.2-2,8.29,8.29,0,0,0,.93-4.23,17.51,17.51,0,0,0-.2-2.6c-.5-3.39-1.72-9.6-2.57-15.66-.83-5.9-1.57-11.37-1.69-13.16a2.7,2.7,0,0,0-2.76-2.83h-.14Z" fill="#b5b6d3" fill-rule="evenodd"/><path d="M392.69,187.41a1.35,1.35,0,0,1,0-2.69h2.74a5.27,5.27,0,0,1,5.54,5.33c.12,1.73.85,7.14,1.67,13,.8,5.68,1.74,12.07,2.27,15.63a20.09,20.09,0,0,1,.24,3,10.91,10.91,0,0,1-1.33,5.61,6.81,6.81,0,0,1-5.12,3.29,11,11,0,0,1-1.55.11h-7.31a1.35,1.35,0,1,1,0-2.7h7.31a7.09,7.09,0,0,0,1.17-.08,4.2,4.2,0,0,0,3.2-2,8.4,8.4,0,0,0,.93-4.23,19,19,0,0,0-.2-2.6c-.5-3.39-1.42-9.6-2.27-15.66-.83-5.9-1.57-11.37-1.69-13.16a2.7,2.7,0,0,0-2.76-2.83h-2.84Z" fill="#fff" fill-rule="evenodd"/><path d="M303.86,121a20.16,20.16,0,0,0,19.63,15.86h28v24a7.37,7.37,0,0,1-7.35,7.34h-49l-12.51,12.51a.8.8,0,0,1-.89.18.82.82,0,0,1-.51-.76V128.3a7.36,7.36,0,0,1,7.34-7.34Z" fill="#c0cdea" fill-rule="evenodd"/><path d="M342.35,118.82H286.76a7.36,7.36,0,0,0-7.34,7.34V178a.82.82,0,0,0,1.4.58L293.33,166h49a7.36,7.36,0,0,0,7.34-7.34V126.16A7.36,7.36,0,0,0,342.35,118.82Z" fill="#f9b100" fill-rule="evenodd"/><path d="M301.17,147.46v3.9h-3.48v-3.9h-8.91V144.4l7.47-12.19h4.92v12.1h2.9v3.15Zm-3.44-11.79-5.45,8.64h5.45Z" fill="#fff"/><path d="M323.72,141.7a16,16,0,0,1-.51,4.22,9.23,9.23,0,0,1-1.51,3.15,6.5,6.5,0,0,1-2.41,2,8,8,0,0,1-6.16.12,5.82,5.82,0,0,1-2.3-1.75,8.59,8.59,0,0,1-1.51-3.06,16.08,16.08,0,0,1-.54-4.45,15.58,15.58,0,0,1,.52-4.22,8.9,8.9,0,0,1,1.5-3.14,6.48,6.48,0,0,1,2.42-2,8,8,0,0,1,6.16-.11,5.8,5.8,0,0,1,2.3,1.74,8.78,8.78,0,0,1,1.5,3.05A16.15,16.15,0,0,1,323.72,141.7Zm-11.34.06v.55a4.53,4.53,0,0,0,0,.52l7.18-5.18a4.81,4.81,0,0,0-1.36-2.15,3,3,0,0,0-2-.69,2.93,2.93,0,0,0-1.53.41,3.77,3.77,0,0,0-1.22,1.28,7.4,7.4,0,0,0-.82,2.17A13.94,13.94,0,0,0,312.38,141.76Zm7.74.06c0-.16,0-.33,0-.5s0-.34,0-.49L313,146a4.36,4.36,0,0,0,1.32,2.11,3.06,3.06,0,0,0,2,.69,3,3,0,0,0,1.53-.42,3.82,3.82,0,0,0,1.23-1.29,7,7,0,0,0,.81-2.16A14.07,14.07,0,0,0,320.12,141.82Z" fill="#fff"/><path d="M340.76,147.46v3.9h-3.49v-3.9h-8.9V144.4l7.47-12.19h4.92v12.1h2.9v3.15Zm-3.44-11.79-5.45,8.64h5.45Z" fill="#fff"/><path d="M145.52,319.2c14.66-7.78,18.38,9.16,12.68,23.19s-34.93,61.22-36.45,79.93c-.6,7.26-2,6.47-3.1,1.38C112.87,398.33,125.36,329.92,145.52,319.2Z" fill="#294d3c" fill-rule="evenodd"/><path d="M114.5,254.92C97.7,239.8,87.2,261,90.1,281.39s26,92.45,21.83,117.69c-1.61,9.78.44,9.18,3.64,2.84C131.57,370.29,137.63,275.74,114.5,254.92Z" fill="#4a9075" fill-rule="evenodd"/><path d="M111.58,406.09c.36.94,1.15.48,2.22-1.08C131.31,346.68,104,259.54,104,259.26a.91.91,0,0,0-1.74.54C102.3,260.08,129.94,348.41,111.58,406.09Z" fill="#1b7154" fill-rule="evenodd"/><path d="M77.81,303.38C61.53,296.3,59,314.68,66.22,329.17s42.36,62.4,45.55,82.24c1.24,7.68,2.61,6.72,3.42,1.2C119.24,385.07,100.22,313.13,77.81,303.38Z" fill="#a6c86b" fill-rule="evenodd"/><path d="M113.25,416.72c.51.6,1,.06,1.39-1.37C113.17,367.55,71.16,309.43,71,309.24a.73.73,0,0,0-1-.17.72.72,0,0,0-.16,1C70,310.26,112.58,369.18,113.25,416.72Z" fill="#5f9850" fill-rule="evenodd"/><polygon points="100.73 407.31 132 407.31 140.17 414.68 133.5 440.38 116.37 440.38 99.23 440.38 92.56 414.68 100.73 407.31" fill="#3b405f" fill-rule="evenodd"/><rect x="89.98" y="396.57" width="52.78" height="16.93" rx="2.59" fill="#3b405f"/><polygon points="140.17 414.68 138.8 419.96 93.94 419.96 92.56 414.68 140.17 414.68" fill="#101537" fill-rule="evenodd"/><path d="M176.09,85.33Zm3.27-12.46a6.3,6.3,0,1,1-1.84,4.45,6.28,6.28,0,0,1,1.84-4.45Zm1.36-6.23a10.54,10.54,0,0,0-2.46,1,10.81,10.81,0,0,0-2.17,1.63.38.38,0,0,1-.46.05l-2.92-1.69h0a.76.76,0,0,0-.53-.06.74.74,0,0,0-.44.34v0l-2.06,3.56a.72.72,0,0,0-.07.55.7.7,0,0,0,.33.44l0,0,2.9,1.67a.39.39,0,0,1,.19.43h0a11.17,11.17,0,0,0-.25,1.33,11.94,11.94,0,0,0-.08,1.35,12.12,12.12,0,0,0,.08,1.36A11.56,11.56,0,0,0,173,80a.4.4,0,0,1-.21.44l-2.9,1.67h0a.73.73,0,0,0-.33.44.71.71,0,0,0,.07.55l2.07,3.59h0a.73.73,0,0,0,.44.33.71.71,0,0,0,.55-.07h0l2.9-1.68a.39.39,0,0,1,.46.06A10.81,10.81,0,0,0,178.26,87,11.17,11.17,0,0,0,180.74,88a.38.38,0,0,1,.28.37v3.37a.72.72,0,0,0,.21.51.74.74,0,0,0,.51.21h4.14a.76.76,0,0,0,.52-.21.72.72,0,0,0,.21-.51V88.39a.38.38,0,0,1,.29-.38A11.06,11.06,0,0,0,189.37,87a10.81,10.81,0,0,0,2.17-1.63.38.38,0,0,1,.48,0l2.9,1.67a.71.71,0,0,0,.55.07.73.73,0,0,0,.44-.33v0L198,83.11h0a.71.71,0,0,0,.07-.55.73.73,0,0,0-.33-.44l-2.93-1.69a.38.38,0,0,1-.18-.42h0a9.74,9.74,0,0,0,.24-1.33,10.13,10.13,0,0,0,.09-1.36,10,10,0,0,0-.09-1.35,9.47,9.47,0,0,0-.24-1.33.4.4,0,0,1,.2-.44l2.91-1.68a.7.7,0,0,0,.33-.44.72.72,0,0,0-.07-.55v0L195.91,68h0a.74.74,0,0,0-.44-.34.81.81,0,0,0-.55.07h0L192,69.37a.39.39,0,0,1-.47-.06,11,11,0,0,0-2.16-1.62,10.72,10.72,0,0,0-2.48-1.06.38.38,0,0,1-.28-.37V62.89a.72.72,0,0,0-.21-.51.73.73,0,0,0-.52-.22h-4.14a.7.7,0,0,0-.51.22.72.72,0,0,0-.21.51v3.37A.4.4,0,0,1,180.72,66.64Z" fill="#c0cdea" fill-rule="evenodd"/><path d="M221.08,102.63a14.82,14.82,0,0,1,25.31,10.49,14.8,14.8,0,0,1-1.12,5.66,14.81,14.81,0,0,1-13.71,9.16,14.82,14.82,0,0,1-10.48-25.31Zm5.34-1.95a13.41,13.41,0,0,0-4.37,2.92,13.62,13.62,0,0,0-2.92,4.37,13.46,13.46,0,0,0,17.58,17.58,13.62,13.62,0,0,0,4.37-2.92A13.47,13.47,0,0,0,244,108a13.47,13.47,0,0,0-17.58-7.29Zm-1.64-10.91a24.79,24.79,0,0,0-2.74,1,26.67,26.67,0,0,0-2.62,1.31A25.79,25.79,0,0,0,217,93.69a24.7,24.7,0,0,0-2.26,1.93,1.57,1.57,0,0,1-1.85.23c-2.18-1.26-4.47-2.51-6.6-3.82a1,1,0,0,0-.32-.09.92.92,0,0,0-.37,0,1,1,0,0,0-.33.17.78.78,0,0,0-.24.27c-1.59,2.4-3.18,5.51-4.65,8a.93.93,0,0,0-.12.34,1.22,1.22,0,0,0,0,.38,1,1,0,0,0,.16.33.81.81,0,0,0,.28.24c2,1.3,4.48,2.59,6.55,3.79a1.57,1.57,0,0,1,.66.74,1.7,1.7,0,0,1,.1.32l.13,0-.15.61c-.12.48-.22,1-.31,1.44s-.16,1-.22,1.46-.11,1-.14,1.48,0,1,0,1.49,0,1,0,1.49.08,1,.14,1.47.13,1,.22,1.46.19,1,.31,1.45a1.56,1.56,0,0,1-.8,1.75l-5.81,3.35h0l-.68.4a.94.94,0,0,0-.28.24,1,1,0,0,0-.16.34,1.16,1.16,0,0,0,0,.37.87.87,0,0,0,.12.34l4.3,7.45h0l.35.6a.92.92,0,0,0,.24.28,1,1,0,0,0,.33.16,1.18,1.18,0,0,0,.37,0,1,1,0,0,0,.34-.12c2.09-1.31,4.43-2.55,6.58-3.79a1.51,1.51,0,0,1,1-.2,1.61,1.61,0,0,1,.89.42h0a23.23,23.23,0,0,0,2.26,1.93,24.17,24.17,0,0,0,5.11,3,24.08,24.08,0,0,0,2.78,1,1.6,1.6,0,0,1,.82.56,1.54,1.54,0,0,1,.31.94v7.58a1,1,0,0,0,.07.35,1.06,1.06,0,0,0,.21.31.79.79,0,0,0,.31.2.84.84,0,0,0,.35.07h9.3a.86.86,0,0,0,.36-.07.79.79,0,0,0,.31-.2,1,1,0,0,0,.2-.31.84.84,0,0,0,.07-.35V138a1.59,1.59,0,0,1,.34-1,1.55,1.55,0,0,1,.86-.55,23.93,23.93,0,0,0,2.73-1,24.77,24.77,0,0,0,2.63-1.31,25.17,25.17,0,0,0,2.47-1.64,24.48,24.48,0,0,0,2.26-1.93,1.53,1.53,0,0,1,.93-.42,1.55,1.55,0,0,1,1,.25l6.49,3.74a1,1,0,0,0,.34.12,1.16,1.16,0,0,0,.37,0,1,1,0,0,0,.34-.16,1.08,1.08,0,0,0,.24-.28c1.54-2.69,3.11-5.36,4.65-8.05a.85.85,0,0,0,.11-.34.93.93,0,0,0,0-.37,1.19,1.19,0,0,0-.16-.34,1,1,0,0,0-.27-.24l-6.57-3.79a1.53,1.53,0,0,1-.65-.73,1.21,1.21,0,0,1-.08-.25l-.18,0,.18-.69c.12-.48.22-1,.31-1.44s.16-1,.22-1.47.11-1,.13-1.47.05-1,.05-1.49,0-1-.05-1.49-.07-1-.13-1.48-.14-1-.22-1.46-.19-1-.31-1.44a1.52,1.52,0,0,1,.79-1.75l6.5-3.76a.92.92,0,0,0,.28-.24,1.13,1.13,0,0,0,.16-.33.93.93,0,0,0,0-.37.89.89,0,0,0-.11-.35c-1.59-2.36-3.18-5.51-4.65-8a.9.9,0,0,0-.24-.27,1,1,0,0,0-.34-.17.93.93,0,0,0-.37,0,.9.9,0,0,0-.34.11l-6.57,3.8a1.5,1.5,0,0,1-1,.19,1.48,1.48,0,0,1-.89-.44,27,27,0,0,0-2.25-1.91,24.45,24.45,0,0,0-2.46-1.64,24.16,24.16,0,0,0-2.65-1.31,24.69,24.69,0,0,0-2.78-1,1.5,1.5,0,0,1-.81-.56,1.53,1.53,0,0,1-.31-.93V80.68a.86.86,0,0,0-.07-.36,1,1,0,0,0-.2-.3,1,1,0,0,0-.31-.21.86.86,0,0,0-.36-.07h-9.3a.84.84,0,0,0-.35.07,1,1,0,0,0-.31.21.93.93,0,0,0-.28.66v7.58a1.55,1.55,0,0,1-.33,1,1.59,1.59,0,0,1-.86.55Zm-3.27-.29a25.74,25.74,0,0,0-2.78,1.39,26.81,26.81,0,0,0-2.61,1.73,27.12,27.12,0,0,0-2.38,2,.14.14,0,0,1-.1.05.17.17,0,0,1-.12,0c-2.21-1.27-4.42-2.54-6.62-3.83a2.51,2.51,0,0,0-.83-.26,2.3,2.3,0,0,0-.87.07,2.38,2.38,0,0,0-1.41,1.07c-1.6,2.6-3.12,5.4-4.65,8.05a2.5,2.5,0,0,0-.29.86,2.7,2.7,0,0,0,.06.9,2.45,2.45,0,0,0,.4.81,2.32,2.32,0,0,0,.68.6c2.11,1.3,4.4,2.54,6.56,3.79a.2.2,0,0,1,.08.08.25.25,0,0,1,0,.12l-.15.61h0c-.07.3-.13.6-.19.91-.09.53-.17,1-.23,1.55s-.11,1-.14,1.56-.05,1.06-.05,1.57,0,1,.05,1.57.07,1,.14,1.55.14,1,.23,1.55.21,1,.33,1.52a.16.16,0,0,1,0,.12.18.18,0,0,1-.08.09c-2.42,1.29-4.86,2.8-7.25,4.18l.09.11-.08.09a2.45,2.45,0,0,0-.4.81,2.72,2.72,0,0,0-.06.9,2.43,2.43,0,0,0,.29.86l5,8.65.09-.05.16.13a2.37,2.37,0,0,0,1.71.45,2.13,2.13,0,0,0,.83-.27c2.19-1.16,4.44-2.56,6.6-3.81a.18.18,0,0,1,.1,0,.19.19,0,0,1,.11,0,27,27,0,0,0,2.38,2,26.71,26.71,0,0,0,2.61,1.72,25.21,25.21,0,0,0,2.8,1.4,26.23,26.23,0,0,0,2.94,1,.16.16,0,0,1,.09.07.15.15,0,0,1,0,.11v7.58a2.23,2.23,0,0,0,.18.88,2.4,2.4,0,0,0,.5.75,2.52,2.52,0,0,0,.75.5,2.2,2.2,0,0,0,.88.18h9.3a2.25,2.25,0,0,0,.89-.18,2.52,2.52,0,0,0,.75-.5,2.34,2.34,0,0,0,.68-1.63V138a.21.21,0,0,1,0-.12.2.2,0,0,1,.11-.06h0a25.9,25.9,0,0,0,2.92-1,25.59,25.59,0,0,0,2.77-1.39,26.4,26.4,0,0,0,5-3.76.16.16,0,0,1,.11,0,.2.2,0,0,1,.11,0l6.57,3.79a2.24,2.24,0,0,0,.85.28,2.37,2.37,0,0,0,1.71-.45,2.3,2.3,0,0,0,.58-.66c1.73-2.77,3.36-5.81,5-8.66l-.09,0a1.7,1.7,0,0,0,0-.22,2.32,2.32,0,0,0-.46-1.71,2.12,2.12,0,0,0-.67-.59l-6.57-3.79a.16.16,0,0,1-.07-.09.17.17,0,0,1,0-.12l.17-.69h0c.06-.27.11-.55.16-.83.1-.52.18-1,.24-1.55s.11-1,.14-1.55.05-1.06.05-1.57,0-1-.05-1.57-.08-1.06-.14-1.56-.14-1-.24-1.55-.2-1-.32-1.52a.17.17,0,0,1,0-.12.24.24,0,0,1,.08-.09l6.56-3.78a2.16,2.16,0,0,0,.67-.6,2.12,2.12,0,0,0,.4-.81,2.25,2.25,0,0,0,.06-.9,2.31,2.31,0,0,0-.27-.83c-1.57-2.9-3.36-5.82-5-8.68l-.1.06-.15-.13a2.32,2.32,0,0,0-1.71-.46,2.3,2.3,0,0,0-.85.28l-.49.28h0l-6.09,3.51a.14.14,0,0,1-.11,0,.16.16,0,0,1-.11-.05h0a25.73,25.73,0,0,0-2.38-2,24.87,24.87,0,0,0-2.6-1.72,23.39,23.39,0,0,0-2.79-1.39,25,25,0,0,0-2.94-1,.21.21,0,0,1-.1-.06.14.14,0,0,1,0-.11V80.68a2.34,2.34,0,0,0-.18-.88,2.31,2.31,0,0,0-.51-.76,2.36,2.36,0,0,0-.74-.5,2.43,2.43,0,0,0-.89-.17h-9.3a2.38,2.38,0,0,0-.88.17,2.52,2.52,0,0,0-.75.5,2.31,2.31,0,0,0-.68,1.64v7.58a.15.15,0,0,1,0,.11.18.18,0,0,1-.1.07h0A27.2,27.2,0,0,0,221.51,89.48Z" fill="#c0cdea" fill-rule="evenodd"/><path d="M510,190.92Zm3.27-12.46a6.3,6.3,0,1,1-1.84,4.45,6.26,6.26,0,0,1,1.84-4.45Zm1.36-6.24a11.76,11.76,0,0,0-2.47,1.05A11.89,11.89,0,0,0,510,174.9a.37.37,0,0,1-.46.06l-2.92-1.69h0a.76.76,0,0,0-.53-.06.74.74,0,0,0-.44.34l0,0-2.05,3.56a.71.71,0,0,0-.07.55.69.69,0,0,0,.33.44l0,0,2.9,1.67a.4.4,0,0,1,.19.43h0a11.39,11.39,0,0,0-.25,1.32,11.6,11.6,0,0,0,0,2.72,12,12,0,0,0,.25,1.33.38.38,0,0,1-.21.43l-2.9,1.68h0a.69.69,0,0,0-.33.44.71.71,0,0,0,.07.55l2.07,3.58h0a.71.71,0,0,0,.44.34.72.72,0,0,0,.55-.07h0l2.9-1.68a.38.38,0,0,1,.46.06,11.89,11.89,0,0,0,2.16,1.63,11.42,11.42,0,0,0,2.49,1,.4.4,0,0,1,.28.38v3.37a.72.72,0,0,0,.72.72h4.14a.72.72,0,0,0,.51-.21.73.73,0,0,0,.22-.51V194a.38.38,0,0,1,.29-.38,11.06,11.06,0,0,0,2.47-1,11.55,11.55,0,0,0,2.16-1.63.4.4,0,0,1,.48,0l2.91,1.68a.73.73,0,0,0,1-.27v0l2.06-3.56h0a.71.71,0,0,0,.07-.55.74.74,0,0,0-.34-.44L528.72,186a.38.38,0,0,1-.18-.42h0a10,10,0,0,0,.24-1.33,11.6,11.6,0,0,0,0-2.72,9.59,9.59,0,0,0-.24-1.32.38.38,0,0,1,.2-.44l2.9-1.68a.74.74,0,0,0,.34-.44.71.71,0,0,0-.07-.55v0l-2.06-3.56h0a.74.74,0,0,0-.44-.34.71.71,0,0,0-.55.07h0L525.92,175a.38.38,0,0,1-.46-.06,11,11,0,0,0-4.64-2.68.38.38,0,0,1-.28-.37v-3.38a.73.73,0,0,0-.22-.51.72.72,0,0,0-.51-.21h-4.14a.72.72,0,0,0-.72.72v3.38A.38.38,0,0,1,514.65,172.22Z" fill="#c0cdea" fill-rule="evenodd"/><path d="M641.37,275.39a15.1,15.1,0,0,1,4.82-3.22,14.84,14.84,0,0,1,19.37,19.37,14.67,14.67,0,0,1-3.22,4.82,14.83,14.83,0,0,1-24.19-16.15,15.1,15.1,0,0,1,3.22-4.82Zm5.34-1.95A13.47,13.47,0,0,0,639.42,291a13.41,13.41,0,0,0,2.92,4.37,13.62,13.62,0,0,0,4.37,2.92,13.49,13.49,0,0,0,10.29,0,13.47,13.47,0,0,0,7.29-7.29,13.49,13.49,0,0,0,0-10.29,13.47,13.47,0,0,0-7.29-7.29,13.49,13.49,0,0,0-10.29,0Zm-1.64-10.91a23.93,23.93,0,0,0-2.73,1,25,25,0,0,0-5.1,2.95,26.12,26.12,0,0,0-2.26,1.93,1.48,1.48,0,0,1-.89.42,1.56,1.56,0,0,1-1-.19c-2.18-1.26-4.47-2.5-6.6-3.82a.9.9,0,0,0-.32-.09.87.87,0,0,0-.36,0,.84.84,0,0,0-.34.17.9.9,0,0,0-.24.27c-1.59,2.4-3.18,5.5-4.65,8a.9.9,0,0,0-.11.34,1,1,0,0,0,0,.38.87.87,0,0,0,.17.33.78.78,0,0,0,.27.24c2,1.3,4.48,2.59,6.56,3.79a1.55,1.55,0,0,1,.65.74,1.19,1.19,0,0,1,.1.32l.14,0-.16.61c-.12.48-.22,1-.31,1.44s-.16.95-.22,1.46-.1,1-.13,1.48-.05,1-.05,1.49,0,1,.05,1.48.07,1,.13,1.48.14,1,.22,1.46.19,1,.31,1.45a1.55,1.55,0,0,1-.09,1,1.57,1.57,0,0,1-.71.73l-5.81,3.35h0l-.69.4a1.05,1.05,0,0,0-.27.24.87.87,0,0,0-.17.33,1,1,0,0,0,0,.38.85.85,0,0,0,.11.34l4.3,7.45h0l.35.6a.9.9,0,0,0,.24.27.84.84,0,0,0,.34.17.88.88,0,0,0,.71-.09c2.08-1.31,4.43-2.55,6.57-3.79a1.55,1.55,0,0,1,1.85.22h0a24.48,24.48,0,0,0,2.26,1.93,25.17,25.17,0,0,0,2.47,1.64,24.22,24.22,0,0,0,2.65,1.32,22.83,22.83,0,0,0,2.78,1,1.61,1.61,0,0,1,.81.56,1.54,1.54,0,0,1,.31.94v7.58a.84.84,0,0,0,.07.35,1,1,0,0,0,.2.31,1.06,1.06,0,0,0,.31.21,1,1,0,0,0,.36.06h9.3a1,1,0,0,0,.35-.06,1,1,0,0,0,.31-.21,1.06,1.06,0,0,0,.21-.31,1,1,0,0,0,.07-.35v-7.59a1.55,1.55,0,0,1,.33-1,1.59,1.59,0,0,1,.86-.55,24.79,24.79,0,0,0,2.74-1,26.67,26.67,0,0,0,2.62-1.31,24,24,0,0,0,2.47-1.64,23.23,23.23,0,0,0,2.26-1.93,1.56,1.56,0,0,1,.94-.42,1.48,1.48,0,0,1,1,.25l6.49,3.74a1.16,1.16,0,0,0,.34.12,1.22,1.22,0,0,0,.38,0,.87.87,0,0,0,.33-.17.9.9,0,0,0,.24-.27c1.54-2.68,3.11-5.36,4.65-8a1.06,1.06,0,0,0,.12-.34,1.25,1.25,0,0,0,0-.38,1,1,0,0,0-.16-.33.78.78,0,0,0-.27-.24l-6.56-3.79a1.5,1.5,0,0,1-.66-.73,2.41,2.41,0,0,1-.08-.25l-.17,0,.17-.69c.12-.48.22-1,.31-1.44s.16-1,.22-1.47.11-1,.14-1.47,0-1,0-1.49,0-1,0-1.49-.08-1-.14-1.48-.14-1-.22-1.46-.19-1-.31-1.44a1.51,1.51,0,0,1,.1-1,1.53,1.53,0,0,1,.7-.72l6.5-3.76a1,1,0,0,0,.27-.24.92.92,0,0,0,.16-.33,1.22,1.22,0,0,0,0-.38,1.16,1.16,0,0,0-.12-.34c-1.58-2.36-3.17-5.51-4.65-8a.9.9,0,0,0-.24-.27.87.87,0,0,0-.33-.17.94.94,0,0,0-.37,0,.89.89,0,0,0-.35.11l-6.57,3.79a1.48,1.48,0,0,1-1,.2,1.57,1.57,0,0,1-.89-.44,24.88,24.88,0,0,0-4.71-3.54,23.21,23.21,0,0,0-2.64-1.32,26.18,26.18,0,0,0-2.78-1,1.49,1.49,0,0,1-.82-.56,1.53,1.53,0,0,1-.31-.93v-7.58a1,1,0,0,0-.07-.36.9.9,0,0,0-.21-.3,1,1,0,0,0-.31-.21.81.81,0,0,0-.35-.07h-9.3a.86.86,0,0,0-.36.07,1.06,1.06,0,0,0-.31.21,1,1,0,0,0-.27.66V261a1.57,1.57,0,0,1-1.2,1.51Zm-3.27-.29a25.92,25.92,0,0,0-5.38,3.12,27.25,27.25,0,0,0-2.39,2,.18.18,0,0,1-.21,0l-6.63-3.83a2.44,2.44,0,0,0-.83-.26,2.32,2.32,0,0,0-.87.07,2.28,2.28,0,0,0-.81.4,2.24,2.24,0,0,0-.59.67c-1.6,2.6-3.12,5.4-4.66,8.06a2.37,2.37,0,0,0-.28.85,2.35,2.35,0,0,0,1.13,2.31c2.12,1.3,4.41,2.54,6.57,3.79a.18.18,0,0,1,.07.08.17.17,0,0,1,0,.12l-.15.61h0c-.07.3-.13.6-.18.91-.1.53-.18,1-.24,1.55s-.11,1-.14,1.56-.05,1.05-.05,1.57,0,1,.05,1.57.08,1.05.14,1.55.14,1,.24,1.55.2,1,.32,1.52a.16.16,0,0,1,0,.12.24.24,0,0,1-.08.09c-2.41,1.29-4.86,2.8-7.25,4.18l.09.11-.07.09a2.32,2.32,0,0,0-.46,1.71,2.25,2.25,0,0,0,.29.86l5,8.65.1-.05.15.12a2.12,2.12,0,0,0,.81.4,2.28,2.28,0,0,0,.9.06,2.08,2.08,0,0,0,.83-.27c2.19-1.16,4.44-2.56,6.6-3.81a.2.2,0,0,1,.11,0l.11.05a23,23,0,0,0,2.38,2,24.08,24.08,0,0,0,2.61,1.73,25.06,25.06,0,0,0,2.79,1.4,27,27,0,0,0,2.94,1,.17.17,0,0,1,.1.07.14.14,0,0,1,0,.11v7.58a2.43,2.43,0,0,0,.18.88,2.27,2.27,0,0,0,.51.75,2.29,2.29,0,0,0,.75.5,2.16,2.16,0,0,0,.88.18h9.3a2.16,2.16,0,0,0,.88-.18,2.4,2.4,0,0,0,.75-.5,2.34,2.34,0,0,0,.68-1.63v-7.59a.15.15,0,0,1,0-.11.17.17,0,0,1,.1-.06h0a27.23,27.23,0,0,0,2.92-1,25.74,25.74,0,0,0,2.78-1.39,24.08,24.08,0,0,0,2.61-1.73,25.51,25.51,0,0,0,2.38-2,.16.16,0,0,1,.11-.05.14.14,0,0,1,.12,0l6.56,3.79a2.35,2.35,0,0,0,1.75.22,2.12,2.12,0,0,0,.81-.4,2.31,2.31,0,0,0,.59-.65c1.72-2.78,3.35-5.81,5-8.66l-.09-.05a1.66,1.66,0,0,0,0-.22,2.37,2.37,0,0,0-.45-1.71,2.15,2.15,0,0,0-.68-.59l-6.56-3.79a.18.18,0,0,1-.08-.09.25.25,0,0,1,0-.12l.17-.69h0c.06-.28.12-.55.17-.83.09-.52.17-1,.24-1.55s.1-1,.14-1.55,0-1.06,0-1.57,0-1,0-1.57-.08-1.06-.14-1.57-.14-1-.24-1.54-.21-1-.33-1.52a.25.25,0,0,1,0-.12.2.2,0,0,1,.09-.09l6.55-3.78a2.2,2.2,0,0,0,.68-.6,2.37,2.37,0,0,0,.45-1.71,2.13,2.13,0,0,0-.27-.83c-1.56-2.9-3.35-5.82-5-8.68l-.09.06-.16-.13a2.32,2.32,0,0,0-1.71-.46,2.43,2.43,0,0,0-.85.28l-.48.28h0l-6.09,3.51a.17.17,0,0,1-.12,0,.12.12,0,0,1-.1-.05l0,0a26.52,26.52,0,0,0-5-3.74,25.15,25.15,0,0,0-2.8-1.39,24.42,24.42,0,0,0-2.94-1.05.15.15,0,0,1-.09-.06.19.19,0,0,1,0-.11v-7.58a2.16,2.16,0,0,0-.18-.88,2.28,2.28,0,0,0-.5-.76,2.4,2.4,0,0,0-.75-.5,2.34,2.34,0,0,0-.88-.17h-9.3a2.34,2.34,0,0,0-.88.17,2.45,2.45,0,0,0-.76.5,2.36,2.36,0,0,0-.68,1.64V261a.2.2,0,0,1,0,.11.21.21,0,0,1-.11.07h0A24.7,24.7,0,0,0,641.8,262.24Z" fill="#c0cdea" fill-rule="evenodd"/><path d="M113.22,146.93a1.08,1.08,0,1,0-2.16,0v2.53h-2.54a1.08,1.08,0,1,0,0,2.16h2.54v2.54a1.08,1.08,0,0,0,2.16,0v-2.54h2.54a1.08,1.08,0,0,0,0-2.16h-2.54Z" fill="#9fb2d9" fill-rule="evenodd"/><path d="M300.11,84.6a1.08,1.08,0,1,0-2.16,0v2.53h-2.54a1.08,1.08,0,0,0,0,2.16H298v2.54a1.08,1.08,0,0,0,2.16,0V89.29h2.54a1.08,1.08,0,0,0,0-2.16h-2.54Z" fill="#9fb2d9" fill-rule="evenodd"/><path d="M399.1,77.26a1.08,1.08,0,1,0-2.15,0V79.8h-2.54a1.08,1.08,0,1,0,0,2.16H397V84.5a1.08,1.08,0,1,0,2.15,0V82h2.54a1.08,1.08,0,0,0,0-2.16H399.1Z" fill="#9fb2d9" fill-rule="evenodd"/><path d="M582.42,299.69a1.08,1.08,0,1,0-2.16,0v2.54h-2.53a1.08,1.08,0,0,0,0,2.16h2.53v2.54a1.08,1.08,0,1,0,2.16,0v-2.54H585a1.08,1.08,0,0,0,0-2.16h-2.54Z" fill="#9fb2d9" fill-rule="evenodd"/><path d="M164.45,396.24a1.08,1.08,0,0,0-2.16,0v2.54h-2.53a1.08,1.08,0,0,0,0,2.16h2.53v2.53a1.08,1.08,0,1,0,2.16,0v-2.53H167a1.08,1.08,0,0,0,0-2.16h-2.54Z" fill="#9fb2d9" fill-rule="evenodd"/><path d="M114.35,216.59a1.08,1.08,0,1,0-2.16,0v2.53h-2.54a1.08,1.08,0,1,0,0,2.16h2.54v2.54a1.08,1.08,0,0,0,2.16,0v-2.54h2.53a1.08,1.08,0,1,0,0-2.16h-2.53Z" fill="#9fb2d9" fill-rule="evenodd"/><rect x="392.96" y="323.74" width="113.5" height="116.15" rx="3.87" fill="#fff"/><rect x="482.33" y="323.74" width="46.01" height="116.15" rx="3.87" fill="#b5b6d3"/><rect x="489.49" y="333.16" width="31.68" height="6.13" rx="2.11" fill="#151d3d"/><path d="M518.43,335.28a2.12,2.12,0,0,0-2.11-2.12h2.74a2.12,2.12,0,0,1,2.11,2.12v1.9a2.12,2.12,0,0,1-2.11,2.11h-2.74c.14,0,2.11-1,2.11-2.11Z" fill="#33385c" fill-rule="evenodd"/><rect x="489.49" y="342.59" width="31.68" height="6.13" rx="2.11" fill="#151d3d"/><path d="M518.43,344.7a2.12,2.12,0,0,0-2.11-2.11h2.74a2.12,2.12,0,0,1,2.11,2.11v1.91a2.12,2.12,0,0,1-2.11,2.11h-2.74c.14,0,2.11-1,2.11-2.11Z" fill="#33385c" fill-rule="evenodd"/><rect x="489.49" y="352.02" width="31.68" height="6.13" rx="2.11" fill="#151d3d"/><path d="M518.43,354.13a2.12,2.12,0,0,0-2.11-2.11h2.74a2.12,2.12,0,0,1,2.11,2.11V356a2.12,2.12,0,0,1-2.11,2.11h-2.74c.14,0,2.11-.95,2.11-2.11Z" fill="#33385c" fill-rule="evenodd"/><rect x="489.49" y="361.45" width="31.68" height="6.13" rx="2.11" fill="#151d3d"/><path d="M518.43,363.56a2.12,2.12,0,0,0-2.11-2.11h2.74a2.12,2.12,0,0,1,2.11,2.11v1.9a2.11,2.11,0,0,1-2.11,2.11h-2.74c.14,0,2.11-.94,2.11-2.11Z" fill="#33385c" fill-rule="evenodd"/><rect x="488.74" y="389.7" width="33.18" height="33.37" rx="8.6" fill="#151d3d"/><path d="M518.72,398.3a8.63,8.63,0,0,0-8.6-8.6h3.2a8.63,8.63,0,0,1,8.6,8.6v16.18a8.62,8.62,0,0,1-8.6,8.59h-3.2a8.62,8.62,0,0,0,8.6-8.59Z" fill="#33385c" fill-rule="evenodd"/><path d="M506.29,389.7h-1.92v9.68a7.09,7.09,0,0,0-6.05,6.05h-9.68v1.92h9.68a7.06,7.06,0,0,0,6.05,6v9.68h1.92v-9.68a7.06,7.06,0,0,0,6.05-6H522v-1.92h-9.68a7.09,7.09,0,0,0-6.05-6.05V389.7Zm-1,21.85a5.16,5.16,0,1,1,5.16-5.16A5.16,5.16,0,0,1,505.33,411.55Z" fill="#484e78" fill-rule="evenodd"/><rect x="488.74" y="380.68" width="14.52" height="6.13" rx="2.11" fill="#151d3d"/><path d="M500.52,382.79a2.12,2.12,0,0,0-2.11-2.11h2.73a2.13,2.13,0,0,1,2.12,2.11v1.91a2.12,2.12,0,0,1-2.12,2.11h-2.73c.14,0,2.11-.95,2.11-2.11Z" fill="#33385c" fill-rule="evenodd"/><rect x="488.74" y="371.53" width="14.52" height="6.13" rx="2.11" fill="#151d3d"/><path d="M500.52,373.64a2.12,2.12,0,0,0-2.11-2.11h2.73a2.13,2.13,0,0,1,2.12,2.11v1.91a2.12,2.12,0,0,1-2.12,2.11h-2.73c.14,0,2.11-1,2.11-2.11Z" fill="#33385c" fill-rule="evenodd"/><rect x="402.65" y="335.54" width="53.29" height="53.59" rx="13.81" fill="#b5b6d3"/><rect x="404.43" y="337.34" width="49.7" height="49.99" rx="12.88" fill="#dcdcee"/><path d="M408.55,383.87a12.86,12.86,0,0,0,8.77,3.46h23.94a12.92,12.92,0,0,0,12.88-12.88V355.3H443.06V341.72h-26.4V370.5h-8.11Z" fill="#cdcde2" fill-rule="evenodd"/><path d="M466.74,398.73h-1.58a1.46,1.46,0,0,0,1.3.82,1.44,1.44,0,0,0,1.26-.76,7.93,7.93,0,0,0-1-.06Zm-2.74,0h-2.58a1.42,1.42,0,0,0,2.58,0Zm-3.75,0h-2.59a1.46,1.46,0,0,0,1.3.82,1.44,1.44,0,0,0,1.29-.82Zm-3.74,0h-2.59a1.44,1.44,0,0,0,1.29.82,1.46,1.46,0,0,0,1.3-.82Zm-3.76,0h-1.57a7.93,7.93,0,0,0-1,.06,1.42,1.42,0,0,0,2.55-.06Zm-4,.36a7.74,7.74,0,0,0-1.16.45h.11a1.43,1.43,0,0,0,1.05-.46Zm-3.51,2.12a8.1,8.1,0,0,0-1.51,2.07l.22,0a1.44,1.44,0,0,0,1.44-1.44,1.59,1.59,0,0,0-.15-.65Zm-2,3.14a8.4,8.4,0,0,0-.44,2.13,1.43,1.43,0,0,0,2.57-.87,1.44,1.44,0,0,0-1.44-1.44,1.48,1.48,0,0,0-.69.18Zm-.47,4.16v1.69a1.44,1.44,0,1,0,0-1.69Zm0,3.75V414a1.44,1.44,0,1,0,0-1.69Zm0,3.75v1.69a1.44,1.44,0,1,0,0-1.69Zm0,3.75v1.69a1.44,1.44,0,1,0,0-1.69Zm0,3.72a7.91,7.91,0,0,0,.44,2.13,1.48,1.48,0,0,0,.69.18,1.44,1.44,0,1,0,0-2.87,1.39,1.39,0,0,0-1.13.56Zm.91,3.2a8.1,8.1,0,0,0,1.51,2.07,1.59,1.59,0,0,0,.15-.65,1.43,1.43,0,0,0-1.44-1.43Zm3.86,3.74a7.74,7.74,0,0,0,1.16.45,1.42,1.42,0,0,0-1.05-.45Zm2.6.75a7.93,7.93,0,0,0,1,.06h1.57a1.43,1.43,0,0,0-2.55-.06Zm3.72.06h2.59a1.45,1.45,0,0,0-1.3-.81,1.43,1.43,0,0,0-1.29.81Zm3.74,0h2.59a1.43,1.43,0,0,0-1.29-.81,1.45,1.45,0,0,0-1.3.81Zm3.76,0H464a1.43,1.43,0,0,0-2.58,0Zm3.74,0h1.58a7.93,7.93,0,0,0,1-.06,1.43,1.43,0,0,0-1.26-.75,1.45,1.45,0,0,0-1.3.81Zm4-.36a7.74,7.74,0,0,0,1.16-.45h-.11a1.42,1.42,0,0,0-1,.45Zm3.51-2.12a8.34,8.34,0,0,0,1.51-2.07H474a1.43,1.43,0,0,0-1.44,1.43,1.55,1.55,0,0,0,.15.65Zm2-3.14a8.31,8.31,0,0,0,.44-2.13,1.43,1.43,0,1,0-1.13,2.31,1.48,1.48,0,0,0,.69-.18Zm.47-4.16v-1.69a1.45,1.45,0,0,0-1.16-.59,1.44,1.44,0,1,0,0,2.87,1.45,1.45,0,0,0,1.16-.59Zm0-3.75V416a1.45,1.45,0,0,0-1.16-.59,1.44,1.44,0,1,0,0,2.87,1.45,1.45,0,0,0,1.16-.59Zm0-3.75v-1.69a1.45,1.45,0,0,0-1.16-.59,1.44,1.44,0,1,0,0,2.87,1.45,1.45,0,0,0,1.16-.59Zm0-3.75v-1.69a1.45,1.45,0,0,0-1.16-.59,1.44,1.44,0,1,0,0,2.87,1.45,1.45,0,0,0,1.16-.59Zm0-3.72a8,8,0,0,0-.45-2.13,1.41,1.41,0,0,0-.68-.18,1.44,1.44,0,1,0,0,2.87,1.42,1.42,0,0,0,1.13-.56Zm-.91-3.2a8.34,8.34,0,0,0-1.51-2.07,1.59,1.59,0,0,0-.15.65A1.44,1.44,0,0,0,474,403.3l.22,0Zm-3.86-3.74a7.74,7.74,0,0,0-1.16-.45,1.43,1.43,0,0,0,1,.46Zm-22.61,30a1.44,1.44,0,1,1,1.44-1.44,1.43,1.43,0,0,1-1.44,1.44Zm3.75,0a1.44,1.44,0,1,1,1.44-1.44,1.43,1.43,0,0,1-1.44,1.44Zm3.75,0a1.44,1.44,0,1,1,1.44-1.44,1.44,1.44,0,0,1-1.44,1.44Zm3.75,0a1.44,1.44,0,1,1,1.44-1.44,1.44,1.44,0,0,1-1.44,1.44Zm3.75,0a1.44,1.44,0,1,1,1.43-1.44,1.44,1.44,0,0,1-1.43,1.44Zm3.75,0a1.44,1.44,0,1,1,1.43-1.44,1.44,1.44,0,0,1-1.43,1.44Zm3.75,0a1.44,1.44,0,1,1,1.43-1.44,1.43,1.43,0,0,1-1.43,1.44Zm-22.5-6.62a1.44,1.44,0,1,0,1.44,1.43,1.43,1.43,0,0,0-1.44-1.43Zm3.75,0a1.44,1.44,0,1,0,1.44,1.43,1.43,1.43,0,0,0-1.44-1.43Zm3.75,0a1.44,1.44,0,1,0,1.44,1.43,1.44,1.44,0,0,0-1.44-1.43Zm3.75,0a1.44,1.44,0,1,0,1.44,1.43,1.44,1.44,0,0,0-1.44-1.43Zm3.75,0a1.44,1.44,0,1,0,1.43,1.43,1.44,1.44,0,0,0-1.43-1.43Zm3.75,0a1.44,1.44,0,1,0,1.43,1.43,1.44,1.44,0,0,0-1.43-1.43Zm3.75,0a1.44,1.44,0,1,0,1.43,1.43,1.43,1.43,0,0,0-1.43-1.43Zm-22.5-.88a1.44,1.44,0,1,1,1.44-1.44,1.43,1.43,0,0,1-1.44,1.44Zm3.75,0a1.44,1.44,0,1,1,1.44-1.44,1.43,1.43,0,0,1-1.44,1.44Zm3.75,0a1.44,1.44,0,1,1,1.44-1.44,1.44,1.44,0,0,1-1.44,1.44Zm3.75,0a1.44,1.44,0,1,1,1.44-1.44A1.44,1.44,0,0,1,459,422Zm3.75,0a1.44,1.44,0,1,1,1.43-1.44,1.44,1.44,0,0,1-1.43,1.44Zm3.75,0a1.44,1.44,0,1,1,1.43-1.44,1.44,1.44,0,0,1-1.43,1.44Zm3.75,0a1.44,1.44,0,1,1,1.43-1.44,1.43,1.43,0,0,1-1.43,1.44Zm-22.5-6.62a1.44,1.44,0,1,0,1.44,1.44,1.43,1.43,0,0,0-1.44-1.44Zm3.75,0a1.44,1.44,0,1,0,1.44,1.44,1.43,1.43,0,0,0-1.44-1.44Zm3.75,0a1.44,1.44,0,1,0,1.44,1.44,1.44,1.44,0,0,0-1.44-1.44Zm3.75,0a1.44,1.44,0,1,0,1.44,1.44,1.44,1.44,0,0,0-1.44-1.44Zm3.75,0a1.44,1.44,0,1,0,1.43,1.44,1.44,1.44,0,0,0-1.43-1.44Zm3.75,0a1.44,1.44,0,1,0,1.43,1.44,1.44,1.44,0,0,0-1.43-1.44Zm3.75,0a1.44,1.44,0,1,0,1.43,1.44,1.43,1.43,0,0,0-1.43-1.44Zm-22.5-.88a1.44,1.44,0,1,1,1.44-1.43,1.43,1.43,0,0,1-1.44,1.43Zm3.75,0a1.44,1.44,0,1,1,1.44-1.43,1.43,1.43,0,0,1-1.44,1.43Zm3.75,0a1.44,1.44,0,1,1,1.44-1.43,1.44,1.44,0,0,1-1.44,1.43Zm3.75,0a1.44,1.44,0,1,1,1.44-1.43,1.44,1.44,0,0,1-1.44,1.43Zm3.75,0a1.44,1.44,0,1,1,1.43-1.43,1.44,1.44,0,0,1-1.43,1.43Zm3.75,0a1.44,1.44,0,1,1,1.43-1.43,1.44,1.44,0,0,1-1.43,1.43Zm3.75,0a1.44,1.44,0,1,1,1.43-1.43,1.43,1.43,0,0,1-1.43,1.43Zm-22.5-6.62a1.44,1.44,0,1,0,1.44,1.44,1.43,1.43,0,0,0-1.44-1.44Zm3.75,0a1.44,1.44,0,1,0,1.44,1.44,1.43,1.43,0,0,0-1.44-1.44Zm3.75,0a1.44,1.44,0,1,0,1.44,1.44,1.44,1.44,0,0,0-1.44-1.44Zm3.75,0a1.44,1.44,0,1,0,1.44,1.44,1.44,1.44,0,0,0-1.44-1.44Zm3.75,0a1.44,1.44,0,1,0,1.43,1.44,1.44,1.44,0,0,0-1.43-1.44Zm3.75,0a1.44,1.44,0,1,0,1.43,1.44,1.44,1.44,0,0,0-1.43-1.44Zm3.75,0a1.44,1.44,0,1,0,1.43,1.44,1.43,1.43,0,0,0-1.43-1.44Zm-22.5-.88a1.44,1.44,0,1,1,1.44-1.43,1.43,1.43,0,0,1-1.44,1.43Zm3.75,0a1.44,1.44,0,0,1,0-2.87,1.44,1.44,0,1,1,0,2.87Zm3.75,0a1.44,1.44,0,1,1,1.44-1.43,1.44,1.44,0,0,1-1.44,1.43Zm3.75,0a1.44,1.44,0,1,1,1.44-1.43A1.44,1.44,0,0,1,459,407Zm3.75,0a1.44,1.44,0,1,1,1.43-1.43,1.44,1.44,0,0,1-1.43,1.43Zm3.75,0a1.44,1.44,0,1,1,1.43-1.43,1.44,1.44,0,0,1-1.43,1.43Zm3.75,0a1.44,1.44,0,1,1,1.43-1.43,1.43,1.43,0,0,1-1.43,1.43Zm-22.5-6.62a1.44,1.44,0,1,0,1.44,1.44,1.44,1.44,0,0,0-1.44-1.44Zm3.75,0a1.44,1.44,0,1,0,1.44,1.44,1.44,1.44,0,0,0-1.44-1.44Zm3.75,0a1.44,1.44,0,1,0,1.44,1.44,1.45,1.45,0,0,0-1.44-1.44Zm3.75,0a1.44,1.44,0,1,0,1.44,1.44,1.45,1.45,0,0,0-1.44-1.44Zm3.75,0a1.44,1.44,0,1,0,1.43,1.44,1.45,1.45,0,0,0-1.43-1.44Zm3.75,0a1.44,1.44,0,1,0,1.43,1.44,1.45,1.45,0,0,0-1.43-1.44Zm3.75,0a1.44,1.44,0,1,0,1.43,1.44A1.44,1.44,0,0,0,470.21,400.42Z" fill="#b5b6d3" fill-rule="evenodd"/><path d="M434.32,429.16H399.81a1,1,0,0,0-1,1h0a1,1,0,0,0,1,1h34.51a1,1,0,0,0,1-1h0A1,1,0,0,0,434.32,429.16Z" fill="#b5b6d3" fill-rule="evenodd"/><path d="M434.32,424.81H399.81a1,1,0,0,0-1,1h0a1,1,0,0,0,1,1h34.51a1,1,0,0,0,1-1h0A1,1,0,0,0,434.32,424.81Z" fill="#b5b6d3" fill-rule="evenodd"/><path d="M434.32,420.47H399.81a1,1,0,0,0-1,1h0a1,1,0,0,0,1,1h34.51a1,1,0,0,0,1-1h0A1,1,0,0,0,434.32,420.47Z" fill="#b5b6d3" fill-rule="evenodd"/><path d="M434.32,416.12H405.65a1,1,0,0,0-1,1h0a1,1,0,0,0,1,1h28.67a1,1,0,0,0,1-1h0A1,1,0,0,0,434.32,416.12Z" fill="#b5b6d3" fill-rule="evenodd"/><path d="M434.32,411.77H399.81a1,1,0,0,0-1,1h0a1,1,0,0,0,1,1h34.51a1,1,0,0,0,1-1h0A1,1,0,0,0,434.32,411.77Z" fill="#b5b6d3" fill-rule="evenodd"/><path d="M434.32,407.43H399.81a1,1,0,0,0-1,1h0a1,1,0,0,0,1,1h34.51a1,1,0,0,0,1-1h0A1,1,0,0,0,434.32,407.43Z" fill="#b5b6d3" fill-rule="evenodd"/><path d="M427.91,403.08h-28.1a1,1,0,0,0-1,1h0a1,1,0,0,0,1,1h28.1a1,1,0,0,0,1-1h0A1,1,0,0,0,427.91,403.08Z" fill="#b5b6d3" fill-rule="evenodd"/><path d="M434.32,398.73H399.81a1,1,0,0,0-1,1h0a1,1,0,0,0,1,1h34.51a1,1,0,0,0,1-1h0A1,1,0,0,0,434.32,398.73Z" fill="#b5b6d3" fill-rule="evenodd"/><path d="M401.32,416.12h-1.51a1,1,0,0,0-1,1h0a1,1,0,0,0,1,1h1.51a1,1,0,0,0,1-1h0A1,1,0,0,0,401.32,416.12Z" fill="#b5b6d3" fill-rule="evenodd"/><path d="M434.32,403.08h-2.46a1,1,0,0,0-1,1h0a1,1,0,0,0,1,1h2.46a1,1,0,0,0,1-1h0A1,1,0,0,0,434.32,403.08Z" fill="#b5b6d3" fill-rule="evenodd"/><path d="M421.85,337.34h-4.53a12.87,12.87,0,0,0-9.63,4.35l42.25,42.25a12.83,12.83,0,0,0,4.2-9.49v-4.82l-32.29-32.29Zm-16.48,8.07,40.91,40.9a12.76,12.76,0,0,1-5,1h-1.37l-35.46-35.46v-1.65A12.84,12.84,0,0,1,405.37,345.41Z" fill="#ededf6" fill-rule="evenodd"/></svg>